  0
SECTION
  2
HEADER
  9
$ACADVER
  1
AC1014
  9
$HANDSEED
  5
FFFF
  9
$MEASUREMENT
 70
     1
  0
ENDSEC
  0
SECTION
  2
TABLES
  0
TABLE
  2
VPORT
  5
8
330
0
100
AcDbSymbolTable
 70
     4
  0
VPORT
  5
2E
330
8
100
AcDbSymbolTableRecord
100
AcDbViewportTableRecord
  2
*ACTIVE
 70
     0
 10
0.0
 20
0.0
 11
1.0
 21
1.0
 12
210.0
 22
148.5
 13
0.0
 23
0.0
 14
10.0
 24
10.0
 15
10.0
 25
10.0
 16
0.0
 26
0.0
 36
1.0
 17
0.0
 27
0.0
 37
0.0
 40
341.0
 41
1.24
 42
50.0
 43
0.0
 44
0.0
 50
0.0
 51
0.0
 71
     0
 72
   100
 73
     1
 74
     3
 75
     0
 76
     0
 77
     0
 78
     0
  0
ENDTAB
  0
TABLE
  2
LTYPE
  5
5
330
0
100
AcDbSymbolTable
 70
     1
  0
LTYPE
  5
14
330
5
100
AcDbSymbolTableRecord
100
AcDbLinetypeTableRecord
  2
BYBLOCK
 70
     0
  3

 72
    65
 73
     0
 40
0.0
  0
LTYPE
  5
15
330
5
100
AcDbSymbolTableRecord
100
AcDbLinetypeTableRecord
  2
BYLAYER
 70
     0
  3

 72
    65
 73
     0
 40
0.0
  0
LTYPE
  5
16
330
5
100
AcDbSymbolTableRecord
100
AcDbLinetypeTableRecord
  2
CONTINUOUS
 70
     0
  3
Solid line
 72
    65
 73
     0
 40
0.0
  0
ENDTAB
  0
TABLE
  2
LAYER
  5
2
100
AcDbSymbolTable
 70
2
  0
LAYER
  5
50
100
AcDbSymbolTableRecord
100
AcDbLayerTableRecord
  2
0
 70
0
  6
CONTINUOUS
  0
LAYER
  5
51
100
AcDbSymbolTableRecord
100
AcDbLayerTableRecord
  2
Ebene_1
 70
0
  6
CONTINUOUS
  0
ENDTAB
  0
TABLE
  2
STYLE
  5
3
330
0
100
AcDbSymbolTable
 70
     1
  0
STYLE
  5
11
330
3
100
AcDbSymbolTableRecord
100
AcDbTextStyleTableRecord
  2
STANDARD
 70
     0
 40
0.0
 41
1.0
 50
0.0
 71
     0
 42
2.5
  3
txt
  4

  0
ENDTAB
  0
TABLE
  2
VIEW
  5
6
330
0
100
AcDbSymbolTable
 70
     0
  0
ENDTAB
  0
TABLE
  2
UCS
  5
7
330
0
100
AcDbSymbolTable
 70
     0
  0
ENDTAB
  0
TABLE
  2
APPID
  5
9
330
0
100
AcDbSymbolTable
 70
     2
  0
APPID
  5
12
330
9
100
AcDbSymbolTableRecord
100
AcDbRegAppTableRecord
  2
ACAD
 70
     0
  0
ENDTAB
  0
TABLE
  2
DIMSTYLE
  5
A
330
0
100
AcDbSymbolTable
 70
     1
  0
DIMSTYLE
105
27
330
A
100
AcDbSymbolTableRecord
100
AcDbDimStyleTableRecord
  2
ISO-25
 70
     0
  3

  4

  5

  6

  7

 40
1.0
 41
2.5
 42
0.625
 43
3.75
 44
1.25
 45
0.0
 46
0.0
 47
0.0
 48
0.0
140
2.5
141
2.5
142
0.0
143
0.03937007874016
144
1.0
145
0.0
146
1.0
147
0.625
 71
     0
 72
     0
 73
     0
 74
     0
 75
     0
 76
     0
 77
     1
 78
     8
170
     0
171
     3
172
     1
173
     0
174
     0
175
     0
176
     0
177
     0
178
     0
270
     2
271
     2
272
     2
273
     2
274
     3
340
11
275
     0
280
     0
281
     0
282
     0
283
     0
284
     8
285
     0
286
     0
287
     3
288
     0
  0
ENDTAB
  0
TABLE
  2
BLOCK_RECORD
  5
1
330
0
100
AcDbSymbolTable
 70
     1
  0
BLOCK_RECORD
  5
1F
330
1
100
AcDbSymbolTableRecord
100
AcDbBlockTableRecord
  2
*MODEL_SPACE
  0
BLOCK_RECORD
  5
1B
330
1
100
AcDbSymbolTableRecord
100
AcDbBlockTableRecord
  2
*PAPER_SPACE
  0
ENDTAB
  0
ENDSEC
  0
SECTION
  2
BLOCKS
  0
BLOCK
  5
20
330
1F
100
AcDbEntity
  8
0
100
AcDbBlockBegin
  2
*MODEL_SPACE
 70
     0
 10
0.0
 20
0.0
 30
0.0
  3
*MODEL_SPACE
  1

  0
ENDBLK
  5
21
330
1F
100
AcDbEntity
  8
0
100
AcDbBlockEnd
  0
BLOCK
  5
1C
330
1B
100
AcDbEntity
 67
     1
  8
0
100
AcDbBlockBegin
  2
*PAPER_SPACE
  1

  0
ENDBLK
  5
1D
330
1B
100
AcDbEntity
 67
     1
  8
0
100
AcDbBlockEnd
  0
ENDSEC
  0
SECTION
  2
ENTITIES
  0
LWPOLYLINE
  5
100
100
AcDbEntity
  8
Ebene_1
 62
7
100
AcDbPolyline
 90
5
 70
1
 10
0.000501
 20
87.400220
 30
0.0
 10
0.000501
 20
87.267408
 30
0.0
 10
0.000501
 20
-0.000172
 30
0.0
 10
87.400887
 20
-0.000172
 30
0.0
 10
87.400887
 20
87.400220
 30
0.0
  0
SPLINE
  5
101
100
AcDbEntity
  8
Ebene_1
 62
7
100
AcDbSpline
 70
8
 71
3
 72
8
 73
4
 74
0
 40
0
 40
0
 40
0
 40
0
 40
1
 40
1
 40
1
 40
1
 10
70.134806
 20
60.663441
 30
0.0
 10
68.747583
 20
64.151449
 30
0.0
 10
66.618984
 20
67.330191
 30
0.0
 10
63.748017
 20
70.199669
 30
0.0
  0
LWPOLYLINE
  5
102
100
AcDbEntity
  8
Ebene_1
 62
7
100
AcDbPolyline
 90
4
 70
1
 10
0.264173
 20
87.136549
 30
0.0
 10
87.135267
 20
87.136549
 30
0.0
 10
87.135267
 20
0.263498
 30
0.0
 10
0.264173
 20
0.263498
 30
0.0
  0
SPLINE
  5
103
100
AcDbEntity
  8
Ebene_1
 62
7
100
AcDbSpline
 70
8
 71
3
 72
8
 73
4
 74
0
 40
0
 40
0
 40
0
 40
0
 40
1
 40
1
 40
1
 40
1
 10
69.759317
 20
76.220074
 30
0.0
 10
74.224622
 20
71.751789
 30
0.0
 10
77.301380
 20
66.707688
 30
0.0
 10
78.988431
 20
61.087274
 30
0.0
  0
SPLINE
  5
104
100
AcDbEntity
  8
Ebene_1
 62
7
100
AcDbSpline
 70
8
 71
3
 72
8
 73
4
 74
0
 40
0
 40
0
 40
0
 40
0
 40
1
 40
1
 40
1
 40
1
 10
78.988431
 20
61.087274
 30
0.0
 10
80.019205
 20
57.663007
 30
0.0
 10
80.536247
 20
54.025333
 30
0.0
 10
80.539227
 20
50.173757
 30
0.0
  0
LWPOLYLINE
  5
105
100
AcDbEntity
  8
Ebene_1
 62
7
100
AcDbPolyline
 90
2
 70
0
 10
63.748017
 20
70.199669
 30
0.0
 10
69.759317
 20
76.220074
 30
0.0
  0
SPLINE
  5
106
100
AcDbEntity
  8
Ebene_1
 62
7
100
AcDbSpline
 70
8
 71
3
 72
8
 73
4
 74
0
 40
0
 40
0
 40
0
 40
0
 40
1
 40
1
 40
1
 40
1
 10
80.539227
 20
50.163823
 30
0.0
 10
80.537903
 20
44.532979
 30
0.0
 10
79.436601
 20
39.360404
 30
0.0
 10
77.235156
 20
34.646097
 30
0.0
  0
SPLINE
  5
107
100
AcDbEntity
  8
Ebene_1
 62
7
100
AcDbSpline
 70
8
 71
3
 72
8
 73
4
 74
0
 40
0
 40
0
 40
0
 40
0
 40
1
 40
1
 40
1
 40
1
 10
77.235156
 20
34.646097
 30
0.0
 10
75.463504
 20
30.834255
 30
0.0
 10
72.974483
 20
27.321745
 30
0.0
 10
69.768920
 20
24.108069
 30
0.0
  0
LWPOLYLINE
  5
108
100
AcDbEntity
  8
Ebene_1
 62
7
100
AcDbPolyline
 90
2
 70
0
 10
80.539227
 20
50.173757
 30
0.0
 10
80.539227
 20
50.163823
 30
0.0
  0
SPLINE
  5
109
100
AcDbEntity
  8
Ebene_1
 62
7
100
AcDbSpline
 70
8
 71
3
 72
8
 73
4
 74
0
 40
0
 40
0
 40
0
 40
0
 40
1
 40
1
 40
1
 40
1
 10
63.738084
 20
30.138077
 30
0.0
 10
65.939528
 20
32.340847
 30
0.0
 10
67.702903
 20
34.723413
 30
0.0
 10
69.026882
 20
37.285447
 30
0.0
  0
SPLINE
  5
10a
100
AcDbEntity
  8
Ebene_1
 62
7
100
AcDbSpline
 70
8
 71
3
 72
8
 73
4
 74
0
 40
0
 40
0
 40
0
 40
0
 40
1
 40
1
 40
1
 40
1
 10
69.026882
 20
37.285447
 30
0.0
 10
71.033297
 20
41.165168
 30
0.0
 10
72.035098
 20
45.457960
 30
0.0
 10
72.032780
 20
50.163989
 30
0.0
  0
LWPOLYLINE
  5
10b
100
AcDbEntity
  8
Ebene_1
 62
7
100
AcDbPolyline
 90
2
 70
0
 10
69.768920
 20
24.108069
 30
0.0
 10
63.738084
 20
30.138077
 30
0.0
  0
SPLINE
  5
10c
100
AcDbEntity
  8
Ebene_1
 62
7
100
AcDbSpline
 70
8
 71
3
 72
8
 73
4
 74
0
 40
0
 40
0
 40
0
 40
0
 40
1
 40
1
 40
1
 40
1
 10
72.032780
 20
50.173757
 30
0.0
 10
72.037416
 20
53.934110
 30
0.0
 10
71.405310
 20
57.430561
 30
0.0
 10
70.134806
 20
60.663441
 30
0.0
  0
LWPOLYLINE
  5
10d
100
AcDbEntity
  8
Ebene_1
 62
7
100
AcDbPolyline
 90
2
 70
0
 10
72.032780
 20
50.163989
 30
0.0
 10
72.032780
 20
50.173757
 30
0.0
  0
SPLINE
  5
10e
100
AcDbEntity
  8
Ebene_1
 62
7
100
AcDbSpline
 70
8
 71
3
 72
8
 73
4
 74
0
 40
0
 40
0
 40
0
 40
0
 40
1
 40
1
 40
1
 40
1
 10
59.537674
 20
65.903565
 30
0.0
 10
60.989299
 20
64.442503
 30
0.0
 10
62.196890
 20
62.878793
 30
0.0
 10
63.160115
 20
61.212602
 30
0.0
  0
LWPOLYLINE
  5
10f
100
AcDbEntity
  8
Ebene_1
 62
7
100
AcDbPolyline
 90
1
 70
1
 10
70.134806
 20
60.663441
 30
0.0
  0
SPLINE
  5
110
100
AcDbEntity
  8
Ebene_1
 62
7
100
AcDbSpline
 70
8
 71
3
 72
8
 73
4
 74
0
 40
0
 40
0
 40
0
 40
0
 40
1
 40
1
 40
1
 40
1
 10
63.170049
 20
61.212602
 30
0.0
 10
65.065540
 20
57.934855
 30
0.0
 10
66.012706
 20
54.261918
 30
0.0
 10
66.011878
 20
50.192962
 30
0.0
  0
LWPOLYLINE
  5
111
100
AcDbEntity
  8
Ebene_1
 62
7
100
AcDbPolyline
 90
2
 70
0
 10
63.160115
 20
61.212602
 30
0.0
 10
63.170049
 20
61.212602
 30
0.0
  0
SPLINE
  5
112
100
AcDbEntity
  8
Ebene_1
 62
7
100
AcDbSpline
 70
8
 71
3
 72
8
 73
4
 74
0
 40
0
 40
0
 40
0
 40
0
 40
1
 40
1
 40
1
 40
1
 10
66.011878
 20
50.173757
 30
0.0
 10
66.011216
 20
45.949341
 30
0.0
 10
64.993356
 20
42.147764
 30
0.0
 10
62.957802
 20
38.768529
 30
0.0
  0
LWPOLYLINE
  5
113
100
AcDbEntity
  8
Ebene_1
 62
7
100
AcDbPolyline
 90
2
 70
0
 10
66.011878
 20
50.192962
 30
0.0
 10
66.011878
 20
50.173757
 30
0.0
  0
SPLINE
  5
114
100
AcDbEntity
  8
Ebene_1
 62
7
100
AcDbSpline
 70
8
 71
3
 72
8
 73
4
 74
0
 40
0
 40
0
 40
0
 40
0
 40
1
 40
1
 40
1
 40
1
 10
62.948365
 20
38.768529
 30
0.0
 10
62.008649
 20
37.223196
 30
0.0
 10
60.856024
 20
35.765445
 30
0.0
 10
59.489496
 20
34.395440
 30
0.0
  0
LWPOLYLINE
  5
115
100
AcDbEntity
  8
Ebene_1
 62
7
100
AcDbPolyline
 90
2
 70
0
 10
62.957802
 20
38.768529
 30
0.0
 10
62.948365
 20
38.768529
 30
0.0
  0
SPLINE
  5
116
100
AcDbEntity
  8
Ebene_1
 62
7
100
AcDbSpline
 70
8
 71
3
 72
8
 73
4
 74
0
 40
0
 40
0
 40
0
 40
0
 40
1
 40
1
 40
1
 40
1
 10
53.449223
 20
40.425614
 30
0.0
 10
53.841765
 20
40.830903
 30
0.0
 10
54.204505
 20
41.245133
 30
0.0
 10
54.537942
 20
41.668138
 30
0.0
  0
LWPOLYLINE
  5
117
100
AcDbEntity
  8
Ebene_1
 62
7
100
AcDbPolyline
 90
4
 70
0
 10
59.489496
 20
34.395440
 30
0.0
 10
59.489496
 20
34.405374
 30
0.0
 10
59.480059
 20
34.395440
 30
0.0
 10
53.449223
 20
40.425614
 30
0.0
  0
SPLINE
  5
118
100
AcDbEntity
  8
Ebene_1
 62
7
100
AcDbSpline
 70
8
 71
3
 72
8
 73
4
 74
0
 40
0
 40
0
 40
0
 40
0
 40
1
 40
1
 40
1
 40
1
 10
54.537942
 20
41.678071
 30
0.0
 10
56.496180
 20
44.107160
 30
0.0
 10
57.478776
 20
46.939387
 30
0.0
 10
57.486060
 20
50.173757
 30
0.0
  0
LWPOLYLINE
  5
119
100
AcDbEntity
  8
Ebene_1
 62
7
100
AcDbPolyline
 90
2
 70
0
 10
54.537942
 20
41.668138
 30
0.0
 10
54.537942
 20
41.678071
 30
0.0
  0
SPLINE
  5
11a
100
AcDbEntity
  8
Ebene_1
 62
7
100
AcDbSpline
 70
8
 71
3
 72
8
 73
4
 74
0
 40
0
 40
0
 40
0
 40
0
 40
1
 40
1
 40
1
 40
1
 10
57.486060
 20
50.192962
 30
0.0
 10
57.482915
 20
53.990566
 30
0.0
 10
56.141055
 20
57.230234
 30
0.0
 10
53.459157
 20
59.912132
 30
0.0
  0
LWPOLYLINE
  5
11b
100
AcDbEntity
  8
Ebene_1
 62
7
100
AcDbPolyline
 90
2
 70
0
 10
57.486060
 20
50.173757
 30
0.0
 10
57.486060
 20
50.192962
 30
0.0
  0
SPLINE
  5
11c
100
AcDbEntity
  8
Ebene_1
 62
7
100
AcDbSpline
 70
8
 71
3
 72
8
 73
4
 74
0
 40
0
 40
0
 40
0
 40
0
 40
1
 40
1
 40
1
 40
1
 10
59.499264
 20
65.961345
 30
0.0
 10
59.513005
 20
65.942968
 30
0.0
 10
59.525753
 20
65.923763
 30
0.0
 10
59.537674
 20
65.903565
 30
0.0
  0
LWPOLYLINE
  5
11d
100
AcDbEntity
  8
Ebene_1
 62
7
100
AcDbPolyline
 90
2
 70
0
 10
53.459157
 20
59.912132
 30
0.0
 10
59.499264
 20
65.961345
 30
0.0
  0
SPLINE
  5
11e
100
AcDbEntity
  8
Ebene_1
 62
7
100
AcDbSpline
 70
8
 71
3
 72
8
 73
4
 74
0
 40
0
 40
0
 40
0
 40
0
 40
1
 40
1
 40
1
 40
1
 10
38.700189
 20
55.211567
 30
0.0
 10
40.081287
 20
56.593989
 30
0.0
 10
41.750954
 20
57.284206
 30
0.0
 10
43.709854
 20
57.282551
 30
0.0
  0
SPLINE
  5
11f
100
AcDbEntity
  8
Ebene_1
 62
7
100
AcDbSpline
 70
8
 71
3
 72
8
 73
4
 74
0
 40
0
 40
0
 40
0
 40
0
 40
1
 40
1
 40
1
 40
1
 10
43.709854
 20
57.282551
 30
0.0
 10
45.671900
 20
57.284206
 30
0.0
 10
47.344879
 20
56.593989
 30
0.0
 10
48.728956
 20
55.211567
 30
0.0
  0
LWPOLYLINE
  5
120
100
AcDbEntity
  8
Ebene_1
 62
7
100
AcDbPolyline
 90
1
 70
1
 10
59.537674
 20
65.903565
 30
0.0
  0
SPLINE
  5
121
100
AcDbEntity
  8
Ebene_1
 62
7
100
AcDbSpline
 70
8
 71
3
 72
8
 73
4
 74
0
 40
0
 40
0
 40
0
 40
0
 40
1
 40
1
 40
1
 40
1
 10
48.738724
 20
55.201799
 30
0.0
 10
50.115020
 20
53.819708
 30
0.0
 10
50.802092
 20
52.150041
 30
0.0
 10
50.800105
 20
50.192962
 30
0.0
  0
LWPOLYLINE
  5
122
100
AcDbEntity
  8
Ebene_1
 62
7
100
AcDbPolyline
 90
2
 70
0
 10
48.728956
 20
55.211567
 30
0.0
 10
48.738724
 20
55.201799
 30
0.0
  0
SPLINE
  5
123
100
AcDbEntity
  8
Ebene_1
 62
7
100
AcDbSpline
 70
8
 71
3
 72
8
 73
4
 74
0
 40
0
 40
0
 40
0
 40
0
 40
1
 40
1
 40
1
 40
1
 10
50.800105
 20
50.173757
 30
0.0
 10
50.797456
 20
48.220486
 30
0.0
 10
50.106908
 20
46.554130
 30
0.0
 10
48.728956
 20
45.174357
 30
0.0
  0
SPLINE
  5
124
100
AcDbEntity
  8
Ebene_1
 62
7
100
AcDbSpline
 70
8
 71
3
 72
8
 73
4
 74
0
 40
0
 40
0
 40
0
 40
0
 40
1
 40
1
 40
1
 40
1
 10
48.728956
 20
45.174357
 30
0.0
 10
48.723989
 20
45.169887
 30
0.0
 10
48.721009
 20
45.163099
 30
0.0
 10
48.719354
 20
45.155152
 30
0.0
  0
SPLINE
  5
125
100
AcDbEntity
  8
Ebene_1
 62
7
100
AcDbSpline
 70
8
 71
3
 72
8
 73
4
 74
0
 40
0
 40
0
 40
0
 40
0
 40
1
 40
1
 40
1
 40
1
 10
48.719354
 20
45.155152
 30
0.0
 10
47.334614
 20
43.785644
 30
0.0
 10
45.665277
 20
43.101883
 30
0.0
 10
43.709689
 20
43.103207
 30
0.0
  0
SPLINE
  5
126
100
AcDbEntity
  8
Ebene_1
 62
7
100
AcDbSpline
 70
8
 71
3
 72
8
 73
4
 74
0
 40
0
 40
0
 40
0
 40
0
 40
1
 40
1
 40
1
 40
1
 10
43.709689
 20
43.103207
 30
0.0
 10
41.753272
 20
43.101717
 30
0.0
 10
40.086585
 20
43.788955
 30
0.0
 10
38.709626
 20
45.164754
 30
0.0
  0
LWPOLYLINE
  5
127
100
AcDbEntity
  8
Ebene_1
 62
7
100
AcDbPolyline
 90
2
 70
0
 10
50.800105
 20
50.192962
 30
0.0
 10
50.800105
 20
50.173757
 30
0.0
  0
SPLINE
  5
128
100
AcDbEntity
  8
Ebene_1
 62
7
100
AcDbSpline
 70
8
 71
3
 72
8
 73
4
 74
0
 40
0
 40
0
 40
0
 40
0
 40
1
 40
1
 40
1
 40
1
 10
38.700024
 20
45.174357
 30
0.0
 10
37.324059
 20
46.551315
 30
0.0
 10
36.633676
 20
48.214857
 30
0.0
 10
36.628709
 20
50.163989
 30
0.0
  0
SPLINE
  5
129
100
AcDbEntity
  8
Ebene_1
 62
7
100
AcDbSpline
 70
8
 71
3
 72
8
 73
4
 74
0
 40
0
 40
0
 40
0
 40
0
 40
1
 40
1
 40
1
 40
1
 10
36.628709
 20
50.163989
 30
0.0
 10
36.628709
 20
50.173923
 30
0.0
 10
36.628709
 20
50.183359
 30
0.0
 10
36.628709
 20
50.193127
 30
0.0
  0
SPLINE
  5
12a
100
AcDbEntity
  8
Ebene_1
 62
7
100
AcDbSpline
 70
8
 71
3
 72
8
 73
4
 74
0
 40
0
 40
0
 40
0
 40
0
 40
1
 40
1
 40
1
 40
1
 10
36.628709
 20
50.193127
 30
0.0
 10
36.626722
 20
52.144577
 30
0.0
 10
37.310980
 20
53.811265
 30
0.0
 10
38.680819
 20
55.192362
 30
0.0
  0
SPLINE
  5
12b
100
AcDbEntity
  8
Ebene_1
 62
7
100
AcDbSpline
 70
8
 71
3
 72
8
 73
4
 74
0
 40
0
 40
0
 40
0
 40
0
 40
1
 40
1
 40
1
 40
1
 10
38.680819
 20
55.192362
 30
0.0
 10
38.686613
 20
55.197991
 30
0.0
 10
38.693070
 20
55.204282
 30
0.0
 10
38.700189
 20
55.211567
 30
0.0
  0
LWPOLYLINE
  5
12c
100
AcDbEntity
  8
Ebene_1
 62
7
100
AcDbPolyline
 90
2
 70
0
 10
38.709626
 20
45.164754
 30
0.0
 10
38.700024
 20
45.174357
 30
0.0
  0
SPLINE
  5
12d
100
AcDbEntity
  8
Ebene_1
 62
7
100
AcDbSpline
 70
8
 71
3
 72
8
 73
4
 74
0
 40
0
 40
0
 40
0
 40
0
 40
1
 40
1
 40
1
 40
1
 10
21.388626
 20
50.192962
 30
0.0
 10
21.387632
 20
50.465473
 30
0.0
 10
21.390944
 20
50.734838
 30
0.0
 10
21.398394
 20
51.002051
 30
0.0
  0
SPLINE
  5
12e
100
AcDbEntity
  8
Ebene_1
 62
7
100
AcDbSpline
 70
8
 71
3
 72
8
 73
4
 74
0
 40
0
 40
0
 40
0
 40
0
 40
1
 40
1
 40
1
 40
1
 10
21.398394
 20
51.002051
 30
0.0
 10
21.582662
 20
56.817163
 30
0.0
 10
23.753478
 20
61.803484
 30
0.0
 10
27.910677
 20
65.961345
 30
0.0
  0
LWPOLYLINE
  5
12f
100
AcDbEntity
  8
Ebene_1
 62
7
100
AcDbPolyline
 90
1
 70
1
 10
38.700189
 20
55.211567
 30
0.0
  0
SPLINE
  5
130
100
AcDbEntity
  8
Ebene_1
 62
7
100
AcDbSpline
 70
8
 71
3
 72
8
 73
4
 74
0
 40
0
 40
0
 40
0
 40
0
 40
1
 40
1
 40
1
 40
1
 10
33.941347
 20
59.931337
 30
0.0
 10
31.256469
 20
57.243479
 30
0.0
 10
29.917258
 20
53.997354
 30
0.0
 10
29.924046
 20
50.192962
 30
0.0
  0
SPLINE
  5
131
100
AcDbEntity
  8
Ebene_1
 62
7
100
AcDbSpline
 70
8
 71
3
 72
8
 73
4
 74
0
 40
0
 40
0
 40
0
 40
0
 40
1
 40
1
 40
1
 40
1
 10
29.924046
 20
50.192962
 30
0.0
 10
29.924046
 20
50.183194
 30
0.0
 10
29.924046
 20
50.173757
 30
0.0
 10
29.924046
 20
50.163823
 30
0.0
  0
SPLINE
  5
132
100
AcDbEntity
  8
Ebene_1
 62
7
100
AcDbSpline
 70
8
 71
3
 72
8
 73
4
 74
0
 40
0
 40
0
 40
0
 40
0
 40
1
 40
1
 40
1
 40
1
 10
29.924046
 20
50.163823
 30
0.0
 10
29.921562
 20
49.739826
 30
0.0
 10
29.937787
 20
49.322119
 30
0.0
 10
29.972224
 20
48.911697
 30
0.0
  0
LWPOLYLINE
  5
133
100
AcDbEntity
  8
Ebene_1
 62
7
100
AcDbPolyline
 90
2
 70
0
 10
27.910677
 20
65.961345
 30
0.0
 10
33.941347
 20
59.931337
 30
0.0
  0
SPLINE
  5
134
100
AcDbEntity
  8
Ebene_1
 62
7
100
AcDbSpline
 70
8
 71
3
 72
8
 73
4
 74
0
 40
0
 40
0
 40
0
 40
0
 40
1
 40
1
 40
1
 40
1
 10
29.972224
 20
48.902260
 30
0.0
 10
30.238774
 20
45.642725
 30
0.0
 10
31.561926
 20
42.820266
 30
0.0
 10
33.941347
 20
40.435051
 30
0.0
  0
SPLINE
  5
135
100
AcDbEntity
  8
Ebene_1
 62
7
100
AcDbSpline
 70
8
 71
3
 72
8
 73
4
 74
0
 40
0
 40
0
 40
0
 40
0
 40
1
 40
1
 40
1
 40
1
 10
33.941347
 20
40.435051
 30
0.0
 10
33.947142
 20
40.428925
 30
0.0
 10
33.953433
 20
40.422634
 30
0.0
 10
33.960718
 20
40.415846
 30
0.0
  0
LWPOLYLINE
  5
136
100
AcDbEntity
  8
Ebene_1
 62
7
100
AcDbPolyline
 90
2
 70
0
 10
29.972224
 20
48.911697
 30
0.0
 10
29.972224
 20
48.902260
 30
0.0
  0
SPLINE
  5
137
100
AcDbEntity
  8
Ebene_1
 62
7
100
AcDbSpline
 70
8
 71
3
 72
8
 73
4
 74
0
 40
0
 40
0
 40
0
 40
0
 40
1
 40
1
 40
1
 40
1
 10
27.910677
 20
34.395440
 30
0.0
 10
23.566892
 20
38.747834
 30
0.0
 10
21.392930
 20
44.004017
 30
0.0
 10
21.388626
 20
50.163823
 30
0.0
  0
SPLINE
  5
138
100
AcDbEntity
  8
Ebene_1
 62
7
100
AcDbSpline
 70
8
 71
3
 72
8
 73
4
 74
0
 40
0
 40
0
 40
0
 40
0
 40
1
 40
1
 40
1
 40
1
 10
21.388626
 20
50.163823
 30
0.0
 10
21.388626
 20
50.173757
 30
0.0
 10
21.388626
 20
50.183359
 30
0.0
 10
21.388626
 20
50.192962
 30
0.0
  0
LWPOLYLINE
  5
139
100
AcDbEntity
  8
Ebene_1
 62
7
100
AcDbPolyline
 90
3
 70
0
 10
33.960718
 20
40.415846
 30
0.0
 10
27.920279
 20
34.385672
 30
0.0
 10
27.910677
 20
34.395440
 30
0.0
  0
SPLINE
  5
13a
100
AcDbEntity
  8
Ebene_1
 62
7
100
AcDbSpline
 70
8
 71
3
 72
8
 73
4
 74
0
 40
0
 40
0
 40
0
 40
0
 40
1
 40
1
 40
1
 40
1
 10
7.178985
 20
55.259745
 30
0.0
 10
8.192375
 20
63.279447
 30
0.0
 10
11.679886
 20
70.269535
 30
0.0
 10
17.641021
 20
76.229842
 30
0.0
  0
LWPOLYLINE
  5
13b
100
AcDbEntity
  8
Ebene_1
 62
7
100
AcDbPolyline
 90
1
 70
1
 10
21.388626
 20
50.192962
 30
0.0
  0
SPLINE
  5
13c
100
AcDbEntity
  8
Ebene_1
 62
7
100
AcDbSpline
 70
8
 71
3
 72
8
 73
4
 74
0
 40
0
 40
0
 40
0
 40
0
 40
1
 40
1
 40
1
 40
1
 10
23.671526
 20
70.199669
 30
0.0
 10
18.827255
 20
65.358874
 30
0.0
 10
16.100986
 20
59.640284
 30
0.0
 10
15.492555
 20
53.044228
 30
0.0
  0
SPLINE
  5
13d
100
AcDbEntity
  8
Ebene_1
 62
7
100
AcDbSpline
 70
8
 71
3
 72
8
 73
4
 74
0
 40
0
 40
0
 40
0
 40
0
 40
1
 40
1
 40
1
 40
1
 10
15.492555
 20
53.044228
 30
0.0
 10
15.408120
 20
52.103684
 30
0.0
 10
15.366233
 20
51.143770
 30
0.0
 10
15.367392
 20
50.163989
 30
0.0
  0
SPLINE
  5
13e
100
AcDbEntity
  8
Ebene_1
 62
7
100
AcDbSpline
 70
8
 71
3
 72
8
 73
4
 74
0
 40
0
 40
0
 40
0
 40
0
 40
1
 40
1
 40
1
 40
1
 10
15.367392
 20
50.163989
 30
0.0
 10
15.367723
 20
42.348587
 30
0.0
 10
18.129587
 20
35.673559
 30
0.0
 10
23.652321
 20
30.138077
 30
0.0
  0
LWPOLYLINE
  5
13f
100
AcDbEntity
  8
Ebene_1
 62
7
100
AcDbPolyline
 90
2
 70
0
 10
17.641021
 20
76.229842
 30
0.0
 10
23.671526
 20
70.199669
 30
0.0
  0
SPLINE
  5
140
100
AcDbEntity
  8
Ebene_1
 62
7
100
AcDbSpline
 70
8
 71
3
 72
8
 73
4
 74
0
 40
0
 40
0
 40
0
 40
0
 40
1
 40
1
 40
1
 40
1
 10
17.621650
 20
24.108069
 30
0.0
 10
10.443156
 20
31.303120
 30
0.0
 10
6.856144
 20
39.988537
 30
0.0
 10
6.860780
 20
50.163989
 30
0.0
  0
SPLINE
  5
141
100
AcDbEntity
  8
Ebene_1
 62
7
100
AcDbSpline
 70
8
 71
3
 72
8
 73
4
 74
0
 40
0
 40
0
 40
0
 40
0
 40
1
 40
1
 40
1
 40
1
 10
6.860780
 20
50.163989
 30
0.0
 10
6.861773
 20
51.906834
 30
0.0
 10
6.967731
 20
53.605640
 30
0.0
 10
7.178985
 20
55.259745
 30
0.0
  0
LWPOLYLINE
  5
142
100
AcDbEntity
  8
Ebene_1
 62
7
100
AcDbPolyline
 90
4
 70
0
 10
23.652321
 20
30.138077
 30
0.0
 10
23.661923
 20
30.128309
 30
0.0
 10
17.631253
 20
24.098467
 30
0.0
 10
17.621650
 20
24.108069
 30
0.0
  0
LWPOLYLINE
  5
143
100
AcDbEntity
  8
Ebene_1
 62
7
100
AcDbPolyline
 90
1
 70
1
 10
7.178985
 20
55.259745
 30
0.0
  0
SPLINE
  5
144
100
AcDbEntity
  8
Ebene_1
 62
7
100
AcDbSpline
 70
8
 71
3
 72
8
 73
4
 74
0
 40
0
 40
0
 40
0
 40
0
 40
1
 40
1
 40
1
 40
1
 10
45.182762
 20
9.792418
 30
0.0
 10
45.262905
 20
9.885385
 30
0.0
 10
45.351863
 20
9.954308
 30
0.0
 10
45.449638
 20
9.999188
 30
0.0
  0
SPLINE
  5
145
100
AcDbEntity
  8
Ebene_1
 62
7
100
AcDbSpline
 70
8
 71
3
 72
8
 73
4
 74
0
 40
0
 40
0
 40
0
 40
0
 40
1
 40
1
 40
1
 40
1
 10
45.449638
 20
9.999188
 30
0.0
 10
45.549015
 20
10.045655
 30
0.0
 10
45.656407
 20
10.068888
 30
0.0
 10
45.771812
 20
10.068888
 30
0.0
  0
SPLINE
  5
146
100
AcDbEntity
  8
Ebene_1
 62
7
100
AcDbSpline
 70
8
 71
3
 72
8
 73
4
 74
0
 40
0
 40
0
 40
0
 40
0
 40
1
 40
1
 40
1
 40
1
 10
45.771812
 20
10.068888
 30
0.0
 10
45.904849
 20
10.068888
 30
0.0
 10
46.020255
 20
10.048055
 30
0.0
 10
46.118030
 20
10.006388
 30
0.0
  0
SPLINE
  5
147
100
AcDbEntity
  8
Ebene_1
 62
7
100
AcDbSpline
 70
8
 71
3
 72
8
 73
4
 74
0
 40
0
 40
0
 40
0
 40
0
 40
1
 40
1
 40
1
 40
1
 10
46.118030
 20
10.006388
 30
0.0
 10
46.215805
 20
9.964721
 30
0.0
 10
46.290338
 20
9.906218
 30
0.0
 10
46.341629
 20
9.830878
 30
0.0
  0
SPLINE
  5
148
100
AcDbEntity
  8
Ebene_1
 62
7
100
AcDbSpline
 70
8
 71
3
 72
8
 73
4
 74
0
 40
0
 40
0
 40
0
 40
0
 40
1
 40
1
 40
1
 40
1
 10
46.341629
 20
9.830878
 30
0.0
 10
46.392922
 20
9.755538
 30
0.0
 10
46.423376
 20
9.681805
 30
0.0
 10
46.432989
 20
9.609678
 30
0.0
  0
SPLINE
  5
149
100
AcDbEntity
  8
Ebene_1
 62
7
100
AcDbSpline
 70
8
 71
3
 72
8
 73
4
 74
0
 40
0
 40
0
 40
0
 40
0
 40
1
 40
1
 40
1
 40
1
 10
46.432989
 20
9.609678
 30
0.0
 10
46.444209
 20
9.537551
 30
0.0
 10
46.449819
 20
9.383678
 30
0.0
 10
46.449819
 20
9.148058
 30
0.0
  0
LWPOLYLINE
  5
14a
100
AcDbEntity
  8
Ebene_1
 62
7
100
AcDbPolyline
 90
2
 70
0
 10
45.182762
 20
10.713258
 30
0.0
 10
45.182762
 20
9.792418
 30
0.0
  0
SPLINE
  5
14b
100
AcDbEntity
  8
Ebene_1
 62
7
100
AcDbSpline
 70
8
 71
3
 72
8
 73
4
 74
0
 40
0
 40
0
 40
0
 40
0
 40
1
 40
1
 40
1
 40
1
 10
46.449819
 20
7.710288
 30
0.0
 10
46.449819
 20
7.476275
 30
0.0
 10
46.433789
 20
7.301565
 30
0.0
 10
46.401729
 20
7.186158
 30
0.0
  0
SPLINE
  5
14c
100
AcDbEntity
  8
Ebene_1
 62
7
100
AcDbSpline
 70
8
 71
3
 72
8
 73
4
 74
0
 40
0
 40
0
 40
0
 40
0
 40
1
 40
1
 40
1
 40
1
 10
46.401729
 20
7.186158
 30
0.0
 10
46.371276
 20
7.072351
 30
0.0
 10
46.298346
 20
6.972975
 30
0.0
 10
46.182939
 20
6.888028
 30
0.0
  0
SPLINE
  5
14d
100
AcDbEntity
  8
Ebene_1
 62
7
100
AcDbSpline
 70
8
 71
3
 72
8
 73
4
 74
0
 40
0
 40
0
 40
0
 40
0
 40
1
 40
1
 40
1
 40
1
 10
46.182939
 20
6.888028
 30
0.0
 10
46.067533
 20
6.804675
 30
0.0
 10
45.930488
 20
6.762998
 30
0.0
 10
45.771805
 20
6.762998
 30
0.0
  0
SPLINE
  5
14e
100
AcDbEntity
  8
Ebene_1
 62
7
100
AcDbSpline
 70
8
 71
3
 72
8
 73
4
 74
0
 40
0
 40
0
 40
0
 40
0
 40
1
 40
1
 40
1
 40
1
 10
45.771805
 20
6.762998
 30
0.0
 10
45.658002
 20
6.762998
 30
0.0
 10
45.551412
 20
6.787831
 30
0.0
 10
45.452035
 20
6.837498
 30
0.0
  0
SPLINE
  5
14f
100
AcDbEntity
  8
Ebene_1
 62
7
100
AcDbSpline
 70
8
 71
3
 72
8
 73
4
 74
0
 40
0
 40
0
 40
0
 40
0
 40
1
 40
1
 40
1
 40
1
 10
45.452035
 20
6.837498
 30
0.0
 10
45.354260
 20
6.887165
 30
0.0
 10
45.264500
 20
6.961698
 30
0.0
 10
45.182755
 20
7.061098
 30
0.0
  0
LWPOLYLINE
  5
150
100
AcDbEntity
  8
Ebene_1
 62
7
100
AcDbPolyline
 90
2
 70
0
 10
46.449819
 20
9.148058
 30
0.0
 10
46.449819
 20
7.710288
 30
0.0
  0
SPLINE
  5
151
100
AcDbEntity
  8
Ebene_1
 62
7
100
AcDbSpline
 70
8
 71
3
 72
8
 73
4
 74
0
 40
0
 40
0
 40
0
 40
0
 40
1
 40
1
 40
1
 40
1
 10
45.478489
 20
9.104788
 30
0.0
 10
45.478489
 20
9.269881
 30
0.0
 10
45.468069
 20
9.377275
 30
0.0
 10
45.447229
 20
9.426968
 30
0.0
  0
SPLINE
  5
152
100
AcDbEntity
  8
Ebene_1
 62
7
100
AcDbSpline
 70
8
 71
3
 72
8
 73
4
 74
0
 40
0
 40
0
 40
0
 40
0
 40
1
 40
1
 40
1
 40
1
 10
45.447229
 20
9.426968
 30
0.0
 10
45.426389
 20
9.478235
 30
0.0
 10
45.385516
 20
9.503868
 30
0.0
 10
45.324611
 20
9.503868
 30
0.0
  0
SPLINE
  5
153
100
AcDbEntity
  8
Ebene_1
 62
7
100
AcDbSpline
 70
8
 71
3
 72
8
 73
4
 74
0
 40
0
 40
0
 40
0
 40
0
 40
1
 40
1
 40
1
 40
1
 10
45.324611
 20
9.503868
 30
0.0
 10
45.265304
 20
9.503868
 30
0.0
 10
45.226836
 20
9.481435
 30
0.0
 10
45.209205
 20
9.436568
 30
0.0
  0
SPLINE
  5
154
100
AcDbEntity
  8
Ebene_1
 62
7
100
AcDbSpline
 70
8
 71
3
 72
8
 73
4
 74
0
 40
0
 40
0
 40
0
 40
0
 40
1
 40
1
 40
1
 40
1
 10
45.209205
 20
9.436568
 30
0.0
 10
45.191572
 20
9.393301
 30
0.0
 10
45.182755
 20
9.282705
 30
0.0
 10
45.182755
 20
9.104778
 30
0.0
  0
LWPOLYLINE
  5
155
100
AcDbEntity
  8
Ebene_1
 62
7
100
AcDbPolyline
 90
5
 70
0
 10
45.182755
 20
7.061098
 30
0.0
 10
45.120245
 20
6.820668
 30
0.0
 10
44.211424
 20
6.820668
 30
0.0
 10
44.211424
 20
10.713208
 30
0.0
 10
45.182762
 20
10.713258
 30
0.0
  0
SPLINE
  5
156
100
AcDbEntity
  8
Ebene_1
 62
7
100
AcDbSpline
 70
8
 71
3
 72
8
 73
4
 74
0
 40
0
 40
0
 40
0
 40
0
 40
1
 40
1
 40
1
 40
1
 10
45.182755
 20
7.729528
 30
0.0
 10
45.182755
 20
7.558021
 30
0.0
 10
45.192372
 20
7.448225
 30
0.0
 10
45.211605
 20
7.400138
 30
0.0
  0
SPLINE
  5
157
100
AcDbEntity
  8
Ebene_1
 62
7
100
AcDbSpline
 70
8
 71
3
 72
8
 73
4
 74
0
 40
0
 40
0
 40
0
 40
0
 40
1
 40
1
 40
1
 40
1
 10
45.211605
 20
7.400138
 30
0.0
 10
45.232445
 20
7.352071
 30
0.0
 10
45.272517
 20
7.328038
 30
0.0
 10
45.331820
 20
7.328038
 30
0.0
  0
SPLINE
  5
158
100
AcDbEntity
  8
Ebene_1
 62
7
100
AcDbSpline
 70
8
 71
3
 72
8
 73
4
 74
0
 40
0
 40
0
 40
0
 40
0
 40
1
 40
1
 40
1
 40
1
 10
45.331820
 20
7.328038
 30
0.0
 10
45.392727
 20
7.328038
 30
0.0
 10
45.431997
 20
7.352871
 30
0.0
 10
45.449630
 20
7.402538
 30
0.0
  0
SPLINE
  5
159
100
AcDbEntity
  8
Ebene_1
 62
7
100
AcDbSpline
 70
8
 71
3
 72
8
 73
4
 74
0
 40
0
 40
0
 40
0
 40
0
 40
1
 40
1
 40
1
 40
1
 10
45.449630
 20
7.402538
 30
0.0
 10
45.468863
 20
7.452205
 30
0.0
 10
45.478480
 20
7.571618
 30
0.0
 10
45.478480
 20
7.760778
 30
0.0
  0
LWPOLYLINE
  5
15a
100
AcDbEntity
  8
Ebene_1
 62
7
100
AcDbPolyline
 90
2
 70
0
 10
45.182755
 20
9.104778
 30
0.0
 10
45.182755
 20
7.729528
 30
0.0
  0
LWPOLYLINE
  5
15b
100
AcDbEntity
  8
Ebene_1
 62
7
100
AcDbPolyline
 90
2
 70
0
 10
45.478480
 20
7.760778
 30
0.0
 10
45.478489
 20
9.104788
 30
0.0
  0
SPLINE
  5
15c
100
AcDbEntity
  8
Ebene_1
 62
7
100
AcDbSpline
 70
8
 71
3
 72
8
 73
4
 74
0
 40
0
 40
0
 40
0
 40
0
 40
1
 40
1
 40
1
 40
1
 10
48.524723
 20
7.703088
 30
0.0
 10
48.481443
 20
7.337635
 30
0.0
 10
48.444577
 20
7.088391
 30
0.0
 10
48.414126
 20
6.955358
 30
0.0
  0
SPLINE
  5
15d
100
AcDbEntity
  8
Ebene_1
 62
7
100
AcDbSpline
 70
8
 71
3
 72
8
 73
4
 74
0
 40
0
 40
0
 40
0
 40
0
 40
1
 40
1
 40
1
 40
1
 10
48.414126
 20
6.955358
 30
0.0
 10
48.385273
 20
6.822318
 30
0.0
 10
48.336385
 20
6.712521
 30
0.0
 10
48.267464
 20
6.625968
 30
0.0
  0
SPLINE
  5
15e
100
AcDbEntity
  8
Ebene_1
 62
7
100
AcDbSpline
 70
8
 71
3
 72
8
 73
4
 74
0
 40
0
 40
0
 40
0
 40
0
 40
1
 40
1
 40
1
 40
1
 10
48.267464
 20
6.625968
 30
0.0
 10
48.198541
 20
6.539415
 30
0.0
 10
48.102370
 20
6.476101
 30
0.0
 10
47.978949
 20
6.436028
 30
0.0
  0
SPLINE
  5
15f
100
AcDbEntity
  8
Ebene_1
 62
7
100
AcDbSpline
 70
8
 71
3
 72
8
 73
4
 74
0
 40
0
 40
0
 40
0
 40
0
 40
1
 40
1
 40
1
 40
1
 10
47.978949
 20
6.436028
 30
0.0
 10
47.857132
 20
6.394361
 30
0.0
 10
47.661583
 20
6.373528
 30
0.0
 10
47.392303
 20
6.373528
 30
0.0
  0
LWPOLYLINE
  5
160
100
AcDbEntity
  8
Ebene_1
 62
7
100
AcDbPolyline
 90
2
 70
0
 10
48.803620
 20
10.011208
 30
0.0
 10
48.524723
 20
7.703088
 30
0.0
  0
SPLINE
  5
161
100
AcDbEntity
  8
Ebene_1
 62
7
100
AcDbSpline
 70
8
 71
3
 72
8
 73
4
 74
0
 40
0
 40
0
 40
0
 40
0
 40
1
 40
1
 40
1
 40
1
 10
46.803252
 20
6.883238
 30
0.0
 10
46.953921
 20
6.883238
 30
0.0
 10
47.050894
 20
6.890438
 30
0.0
 10
47.094171
 20
6.904838
 30
0.0
  0
SPLINE
  5
162
100
AcDbEntity
  8
Ebene_1
 62
7
100
AcDbSpline
 70
8
 71
3
 72
8
 73
4
 74
0
 40
0
 40
0
 40
0
 40
0
 40
1
 40
1
 40
1
 40
1
 10
47.094171
 20
6.904838
 30
0.0
 10
47.137451
 20
6.920838
 30
0.0
 10
47.159091
 20
6.955298
 30
0.0
 10
47.159091
 20
7.008218
 30
0.0
  0
SPLINE
  5
163
100
AcDbEntity
  8
Ebene_1
 62
7
100
AcDbSpline
 70
8
 71
3
 72
8
 73
4
 74
0
 40
0
 40
0
 40
0
 40
0
 40
1
 40
1
 40
1
 40
1
 10
47.159091
 20
7.008218
 30
0.0
 10
47.159091
 20
7.033885
 30
0.0
 10
47.139054
 20
7.145285
 30
0.0
 10
47.098981
 20
7.342418
 30
0.0
  0
LWPOLYLINE
  5
164
100
AcDbEntity
  8
Ebene_1
 62
7
100
AcDbPolyline
 90
3
 70
0
 10
47.392303
 20
6.373528
 30
0.0
 10
46.803252
 20
6.373528
 30
0.0
 10
46.803252
 20
6.883238
 30
0.0
  0
LWPOLYLINE
  5
165
100
AcDbEntity
  8
Ebene_1
 62
7
100
AcDbPolyline
 90
6
 70
0
 10
47.098981
 20
7.342418
 30
0.0
 10
46.567633
 20
10.011178
 30
0.0
 10
47.450007
 20
10.011178
 30
0.0
 10
47.767373
 20
7.859338
 30
0.0
 10
47.921247
 20
10.011178
 30
0.0
 10
48.803620
 20
10.011208
 30
0.0
  0
LWPOLYLINE
  5
166
100
AcDbEntity
  8
Ebene_1
 62
7
100
AcDbPolyline
 90
12
 70
1
 10
52.203284
 20
10.713258
 30
0.0
 10
52.203284
 20
6.820718
 30
0.0
 10
51.191079
 20
6.820718
 30
0.0
 10
51.191079
 20
8.455628
 30
0.0
 10
50.888139
 20
8.455628
 30
0.0
 10
50.888139
 20
6.820718
 30
0.0
 10
49.875933
 20
6.820718
 30
0.0
 10
49.875933
 20
10.713258
 30
0.0
 10
50.888139
 20
10.713258
 30
0.0
 10
50.888139
 20
9.321178
 30
0.0
 10
51.191079
 20
9.321178
 30
0.0
 10
51.191079
 20
10.713258
 30
0.0
  0
SPLINE
  5
167
100
AcDbEntity
  8
Ebene_1
 62
7
100
AcDbSpline
 70
8
 71
3
 72
8
 73
4
 74
0
 40
0
 40
0
 40
0
 40
0
 40
1
 40
1
 40
1
 40
1
 10
52.535076
 20
8.989378
 30
0.0
 10
52.535076
 20
9.236225
 30
0.0
 10
52.563126
 20
9.426165
 30
0.0
 10
52.619226
 20
9.559198
 30
0.0
  0
SPLINE
  5
168
100
AcDbEntity
  8
Ebene_1
 62
7
100
AcDbSpline
 70
8
 71
3
 72
8
 73
4
 74
0
 40
0
 40
0
 40
0
 40
0
 40
1
 40
1
 40
1
 40
1
 10
52.619226
 20
9.559198
 30
0.0
 10
52.676933
 20
9.693838
 30
0.0
 10
52.791537
 20
9.812451
 30
0.0
 10
52.963040
 20
9.915038
 30
0.0
  0
SPLINE
  5
169
100
AcDbEntity
  8
Ebene_1
 62
7
100
AcDbSpline
 70
8
 71
3
 72
8
 73
4
 74
0
 40
0
 40
0
 40
0
 40
0
 40
1
 40
1
 40
1
 40
1
 10
52.963040
 20
9.915038
 30
0.0
 10
53.134545
 20
10.017618
 30
0.0
 10
53.357343
 20
10.068908
 30
0.0
 10
53.631432
 20
10.068908
 30
0.0
  0
SPLINE
  5
16a
100
AcDbEntity
  8
Ebene_1
 62
7
100
AcDbSpline
 70
8
 71
3
 72
8
 73
4
 74
0
 40
0
 40
0
 40
0
 40
0
 40
1
 40
1
 40
1
 40
1
 10
53.631432
 20
10.068908
 30
0.0
 10
53.960018
 20
10.068908
 30
0.0
 10
54.207660
 20
10.010405
 30
0.0
 10
54.374357
 20
9.893398
 30
0.0
  0
SPLINE
  5
16b
100
AcDbEntity
  8
Ebene_1
 62
7
100
AcDbSpline
 70
8
 71
3
 72
8
 73
4
 74
0
 40
0
 40
0
 40
0
 40
0
 40
1
 40
1
 40
1
 40
1
 10
54.374357
 20
9.893398
 30
0.0
 10
54.541054
 20
9.777991
 30
0.0
 10
54.641233
 20
9.635335
 30
0.0
 10
54.674893
 20
9.465428
 30
0.0
  0
SPLINE
  5
16c
100
AcDbEntity
  8
Ebene_1
 62
7
100
AcDbSpline
 70
8
 71
3
 72
8
 73
4
 74
0
 40
0
 40
0
 40
0
 40
0
 40
1
 40
1
 40
1
 40
1
 10
54.674893
 20
9.465428
 30
0.0
 10
54.708553
 20
9.297128
 30
0.0
 10
54.725383
 20
8.949308
 30
0.0
 10
54.725383
 20
8.421968
 30
0.0
  0
LWPOLYLINE
  5
16d
100
AcDbEntity
  8
Ebene_1
 62
7
100
AcDbPolyline
 90
3
 70
0
 10
53.446302
 20
8.775398
 30
0.0
 10
52.535076
 20
8.775398
 30
0.0
 10
52.535076
 20
8.989378
 30
0.0
  0
SPLINE
  5
16e
100
AcDbEntity
  8
Ebene_1
 62
7
100
AcDbSpline
 70
8
 71
3
 72
8
 73
4
 74
0
 40
0
 40
0
 40
0
 40
0
 40
1
 40
1
 40
1
 40
1
 10
53.780498
 20
7.104418
 30
0.0
 10
53.721191
 20
6.990618
 30
0.0
 10
53.644254
 20
6.904865
 30
0.0
 10
53.549686
 20
6.847158
 30
0.0
  0
SPLINE
  5
16f
100
AcDbEntity
  8
Ebene_1
 62
7
100
AcDbSpline
 70
8
 71
3
 72
8
 73
4
 74
0
 40
0
 40
0
 40
0
 40
0
 40
1
 40
1
 40
1
 40
1
 10
53.549686
 20
6.847158
 30
0.0
 10
53.456720
 20
6.791025
 30
0.0
 10
53.345321
 20
6.762958
 30
0.0
 10
53.215490
 20
6.762958
 30
0.0
  0
SPLINE
  5
170
100
AcDbEntity
  8
Ebene_1
 62
7
100
AcDbSpline
 70
8
 71
3
 72
8
 73
4
 74
0
 40
0
 40
0
 40
0
 40
0
 40
1
 40
1
 40
1
 40
1
 10
53.215490
 20
6.762958
 30
0.0
 10
53.045587
 20
6.762958
 30
0.0
 10
52.889308
 20
6.810245
 30
0.0
 10
52.746654
 20
6.904818
 30
0.0
  0
SPLINE
  5
171
100
AcDbEntity
  8
Ebene_1
 62
7
100
AcDbSpline
 70
8
 71
3
 72
8
 73
4
 74
0
 40
0
 40
0
 40
0
 40
0
 40
1
 40
1
 40
1
 40
1
 10
52.746654
 20
6.904818
 30
0.0
 10
52.605602
 20
7.000985
 30
0.0
 10
52.535076
 20
7.210158
 30
0.0
 10
52.535076
 20
7.532338
 30
0.0
  0
LWPOLYLINE
  5
172
100
AcDbEntity
  8
Ebene_1
 62
7
100
AcDbPolyline
 90
4
 70
0
 10
54.725383
 20
8.421968
 30
0.0
 10
54.725383
 20
6.820718
 30
0.0
 10
53.780498
 20
6.820718
 30
0.0
 10
53.780498
 20
7.104418
 30
0.0
  0
SPLINE
  5
173
100
AcDbEntity
  8
Ebene_1
 62
7
100
AcDbSpline
 70
8
 71
3
 72
8
 73
4
 74
0
 40
0
 40
0
 40
0
 40
0
 40
1
 40
1
 40
1
 40
1
 10
52.535076
 20
7.794398
 30
0.0
 10
52.535076
 20
8.033225
 30
0.0
 10
52.572743
 20
8.195915
 30
0.0
 10
52.648078
 20
8.282468
 30
0.0
  0
SPLINE
  5
174
100
AcDbEntity
  8
Ebene_1
 62
7
100
AcDbSpline
 70
8
 71
3
 72
8
 73
4
 74
0
 40
0
 40
0
 40
0
 40
0
 40
1
 40
1
 40
1
 40
1
 10
52.648078
 20
8.282468
 30
0.0
 10
52.723412
 20
8.369028
 30
0.0
 10
52.910145
 20
8.470008
 30
0.0
 10
53.208277
 20
8.585408
 30
0.0
  0
SPLINE
  5
175
100
AcDbEntity
  8
Ebene_1
 62
7
100
AcDbSpline
 70
8
 71
3
 72
8
 73
4
 74
0
 40
0
 40
0
 40
0
 40
0
 40
1
 40
1
 40
1
 40
1
 10
53.208277
 20
8.585408
 30
0.0
 10
53.527246
 20
8.710435
 30
0.0
 10
53.697950
 20
8.794585
 30
0.0
 10
53.720390
 20
8.837858
 30
0.0
  0
SPLINE
  5
176
100
AcDbEntity
  8
Ebene_1
 62
7
100
AcDbSpline
 70
8
 71
3
 72
8
 73
4
 74
0
 40
0
 40
0
 40
0
 40
0
 40
1
 40
1
 40
1
 40
1
 10
53.720390
 20
8.837858
 30
0.0
 10
53.742830
 20
8.881125
 30
0.0
 10
53.754050
 20
8.969285
 30
0.0
 10
53.754050
 20
9.102338
 30
0.0
  0
SPLINE
  5
177
100
AcDbEntity
  8
Ebene_1
 62
7
100
AcDbSpline
 70
8
 71
3
 72
8
 73
4
 74
0
 40
0
 40
0
 40
0
 40
0
 40
1
 40
1
 40
1
 40
1
 10
53.754050
 20
9.102338
 30
0.0
 10
53.754050
 20
9.269031
 30
0.0
 10
53.741227
 20
9.377225
 30
0.0
 10
53.715580
 20
9.426918
 30
0.0
  0
SPLINE
  5
178
100
AcDbEntity
  8
Ebene_1
 62
7
100
AcDbSpline
 70
8
 71
3
 72
8
 73
4
 74
0
 40
0
 40
0
 40
0
 40
0
 40
1
 40
1
 40
1
 40
1
 10
53.715580
 20
9.426918
 30
0.0
 10
53.691540
 20
9.478185
 30
0.0
 10
53.650667
 20
9.503818
 30
0.0
 10
53.592961
 20
9.503818
 30
0.0
  0
SPLINE
  5
179
100
AcDbEntity
  8
Ebene_1
 62
7
100
AcDbSpline
 70
8
 71
3
 72
8
 73
4
 74
0
 40
0
 40
0
 40
0
 40
0
 40
1
 40
1
 40
1
 40
1
 10
53.592961
 20
9.503818
 30
0.0
 10
53.527241
 20
9.503818
 30
0.0
 10
53.486368
 20
9.482185
 30
0.0
 10
53.470342
 20
9.438918
 30
0.0
  0
SPLINE
  5
17a
100
AcDbEntity
  8
Ebene_1
 62
7
100
AcDbSpline
 70
8
 71
3
 72
8
 73
4
 74
0
 40
0
 40
0
 40
0
 40
0
 40
1
 40
1
 40
1
 40
1
 10
53.470342
 20
9.438918
 30
0.0
 10
53.454315
 20
9.397251
 30
0.0
 10
53.446302
 20
9.287455
 30
0.0
 10
53.446302
 20
9.109528
 30
0.0
  0
LWPOLYLINE
  5
17b
100
AcDbEntity
  8
Ebene_1
 62
7
100
AcDbPolyline
 90
2
 70
0
 10
52.535076
 20
7.532338
 30
0.0
 10
52.535076
 20
7.794398
 30
0.0
  0
SPLINE
  5
17c
100
AcDbEntity
  8
Ebene_1
 62
7
100
AcDbSpline
 70
8
 71
3
 72
8
 73
4
 74
0
 40
0
 40
0
 40
0
 40
0
 40
1
 40
1
 40
1
 40
1
 10
53.754050
 20
8.337818
 30
0.0
 10
53.598573
 20
8.224018
 30
0.0
 10
53.508011
 20
8.128648
 30
0.0
 10
53.482366
 20
8.051708
 30
0.0
  0
SPLINE
  5
17d
100
AcDbEntity
  8
Ebene_1
 62
7
100
AcDbSpline
 70
8
 71
3
 72
8
 73
4
 74
0
 40
0
 40
0
 40
0
 40
0
 40
1
 40
1
 40
1
 40
1
 10
53.482366
 20
8.051708
 30
0.0
 10
53.458326
 20
7.974775
 30
0.0
 10
53.446306
 20
7.864178
 30
0.0
 10
53.446306
 20
7.719918
 30
0.0
  0
SPLINE
  5
17e
100
AcDbEntity
  8
Ebene_1
 62
7
100
AcDbSpline
 70
8
 71
3
 72
8
 73
4
 74
0
 40
0
 40
0
 40
0
 40
0
 40
1
 40
1
 40
1
 40
1
 10
53.446306
 20
7.719918
 30
0.0
 10
53.446306
 20
7.554825
 30
0.0
 10
53.456726
 20
7.448235
 30
0.0
 10
53.477566
 20
7.400148
 30
0.0
  0
SPLINE
  5
17f
100
AcDbEntity
  8
Ebene_1
 62
7
100
AcDbSpline
 70
8
 71
3
 72
8
 73
4
 74
0
 40
0
 40
0
 40
0
 40
0
 40
1
 40
1
 40
1
 40
1
 10
53.477566
 20
7.400148
 30
0.0
 10
53.500006
 20
7.352081
 30
0.0
 10
53.543283
 20
7.328048
 30
0.0
 10
53.607398
 20
7.328048
 30
0.0
  0
SPLINE
  5
180
100
AcDbEntity
  8
Ebene_1
 62
7
100
AcDbSpline
 70
8
 71
3
 72
8
 73
4
 74
0
 40
0
 40
0
 40
0
 40
0
 40
1
 40
1
 40
1
 40
1
 10
53.607398
 20
7.328048
 30
0.0
 10
53.668305
 20
7.328048
 30
0.0
 10
53.707575
 20
7.346481
 30
0.0
 10
53.725208
 20
7.383348
 30
0.0
  0
SPLINE
  5
181
100
AcDbEntity
  8
Ebene_1
 62
7
100
AcDbSpline
 70
8
 71
3
 72
8
 73
4
 74
0
 40
0
 40
0
 40
0
 40
0
 40
1
 40
1
 40
1
 40
1
 10
53.725208
 20
7.383348
 30
0.0
 10
53.744441
 20
7.421815
 30
0.0
 10
53.754058
 20
7.521191
 30
0.0
 10
53.754058
 20
7.681478
 30
0.0
  0
LWPOLYLINE
  5
182
100
AcDbEntity
  8
Ebene_1
 62
7
100
AcDbPolyline
 90
2
 70
0
 10
53.446302
 20
9.109528
 30
0.0
 10
53.446302
 20
8.775398
 30
0.0
  0
LWPOLYLINE
  5
183
100
AcDbEntity
  8
Ebene_1
 62
7
100
AcDbPolyline
 90
2
 70
0
 10
53.754058
 20
7.681478
 30
0.0
 10
53.754050
 20
8.337818
 30
0.0
  0
SPLINE
  5
184
100
AcDbEntity
  8
Ebene_1
 62
7
100
AcDbSpline
 70
8
 71
3
 72
8
 73
4
 74
0
 40
0
 40
0
 40
0
 40
0
 40
1
 40
1
 40
1
 40
1
 10
56.030912
 20
9.717878
 30
0.0
 10
56.101438
 20
9.834891
 30
0.0
 10
56.187191
 20
9.922248
 30
0.0
 10
56.288171
 20
9.979948
 30
0.0
  0
SPLINE
  5
185
100
AcDbEntity
  8
Ebene_1
 62
7
100
AcDbSpline
 70
8
 71
3
 72
8
 73
4
 74
0
 40
0
 40
0
 40
0
 40
0
 40
1
 40
1
 40
1
 40
1
 10
56.288171
 20
9.979948
 30
0.0
 10
56.390754
 20
10.039281
 30
0.0
 10
56.508564
 20
10.068948
 30
0.0
 10
56.641601
 20
10.068948
 30
0.0
  0
SPLINE
  5
186
100
AcDbEntity
  8
Ebene_1
 62
7
100
AcDbSpline
 70
8
 71
3
 72
8
 73
4
 74
0
 40
0
 40
0
 40
0
 40
0
 40
1
 40
1
 40
1
 40
1
 10
56.641601
 20
10.068948
 30
0.0
 10
56.808298
 20
10.068948
 30
0.0
 10
56.944541
 20
10.029678
 30
0.0
 10
57.050330
 20
9.951138
 30
0.0
  0
SPLINE
  5
187
100
AcDbEntity
  8
Ebene_1
 62
7
100
AcDbSpline
 70
8
 71
3
 72
8
 73
4
 74
0
 40
0
 40
0
 40
0
 40
0
 40
1
 40
1
 40
1
 40
1
 10
57.050330
 20
9.951138
 30
0.0
 10
57.156119
 20
9.872598
 30
0.0
 10
57.224240
 20
9.773221
 30
0.0
 10
57.254695
 20
9.653008
 30
0.0
  0
SPLINE
  5
188
100
AcDbEntity
  8
Ebene_1
 62
7
100
AcDbSpline
 70
8
 71
3
 72
8
 73
4
 74
0
 40
0
 40
0
 40
0
 40
0
 40
1
 40
1
 40
1
 40
1
 10
57.254695
 20
9.653008
 30
0.0
 10
57.285148
 20
9.534395
 30
0.0
 10
57.300375
 20
9.335638
 30
0.0
 10
57.300375
 20
9.056738
 30
0.0
  0
LWPOLYLINE
  5
189
100
AcDbEntity
  8
Ebene_1
 62
7
100
AcDbPolyline
 90
2
 70
0
 10
56.047742
 20
10.011208
 30
0.0
 10
56.030912
 20
9.717878
 30
0.0
  0
SPLINE
  5
18a
100
AcDbEntity
  8
Ebene_1
 62
7
100
AcDbSpline
 70
8
 71
3
 72
8
 73
4
 74
0
 40
0
 40
0
 40
0
 40
0
 40
1
 40
1
 40
1
 40
1
 10
56.329043
 20
9.030298
 30
0.0
 10
56.329043
 20
9.249891
 30
0.0
 10
56.321830
 20
9.383728
 30
0.0
 10
56.307403
 20
9.431808
 30
0.0
  0
SPLINE
  5
18b
100
AcDbEntity
  8
Ebene_1
 62
7
100
AcDbSpline
 70
8
 71
3
 72
8
 73
4
 74
0
 40
0
 40
0
 40
0
 40
0
 40
1
 40
1
 40
1
 40
1
 10
56.307403
 20
9.431808
 30
0.0
 10
56.292976
 20
9.479875
 30
0.0
 10
56.252905
 20
9.503908
 30
0.0
 10
56.187189
 20
9.503908
 30
0.0
  0
SPLINE
  5
18c
100
AcDbEntity
  8
Ebene_1
 62
7
100
AcDbSpline
 70
8
 71
3
 72
8
 73
4
 74
0
 40
0
 40
0
 40
0
 40
0
 40
1
 40
1
 40
1
 40
1
 10
56.187189
 20
9.503908
 30
0.0
 10
56.118266
 20
9.503908
 30
0.0
 10
56.074988
 20
9.475841
 30
0.0
 10
56.057357
 20
9.419708
 30
0.0
  0
SPLINE
  5
18d
100
AcDbEntity
  8
Ebene_1
 62
7
100
AcDbSpline
 70
8
 71
3
 72
8
 73
4
 74
0
 40
0
 40
0
 40
0
 40
0
 40
1
 40
1
 40
1
 40
1
 10
56.057357
 20
9.419708
 30
0.0
 10
56.039724
 20
9.365241
 30
0.0
 10
56.030907
 20
9.217778
 30
0.0
 10
56.030907
 20
8.977318
 30
0.0
  0
LWPOLYLINE
  5
18e
100
AcDbEntity
  8
Ebene_1
 62
7
100
AcDbPolyline
 90
4
 70
0
 10
57.300375
 20
9.056738
 30
0.0
 10
57.300375
 20
6.820758
 30
0.0
 10
56.329043
 20
6.820758
 30
0.0
 10
56.329043
 20
9.030298
 30
0.0
  0
LWPOLYLINE
  5
18f
100
AcDbEntity
  8
Ebene_1
 62
7
100
AcDbPolyline
 90
5
 70
0
 10
56.030907
 20
8.977318
 30
0.0
 10
56.030907
 20
6.820678
 30
0.0
 10
55.059574
 20
6.820678
 30
0.0
 10
55.059574
 20
10.011168
 30
0.0
 10
56.047742
 20
10.011208
 30
0.0
  0
SPLINE
  5
190
100
AcDbEntity
  8
Ebene_1
 62
7
100
AcDbSpline
 70
8
 71
3
 72
8
 73
4
 74
0
 40
0
 40
0
 40
0
 40
0
 40
1
 40
1
 40
1
 40
1
 10
58.867972
 20
9.174518
 30
0.0
 10
58.867972
 20
9.302745
 30
0.0
 10
58.857552
 20
9.389298
 30
0.0
 10
58.836712
 20
9.434178
 30
0.0
  0
SPLINE
  5
191
100
AcDbEntity
  8
Ebene_1
 62
7
100
AcDbSpline
 70
8
 71
3
 72
8
 73
4
 74
0
 40
0
 40
0
 40
0
 40
0
 40
1
 40
1
 40
1
 40
1
 10
58.836712
 20
9.434178
 30
0.0
 10
58.815872
 20
9.480645
 30
0.0
 10
58.777403
 20
9.503878
 30
0.0
 10
58.721306
 20
9.503878
 30
0.0
  0
SPLINE
  5
192
100
AcDbEntity
  8
Ebene_1
 62
7
100
AcDbSpline
 70
8
 71
3
 72
8
 73
4
 74
0
 40
0
 40
0
 40
0
 40
0
 40
1
 40
1
 40
1
 40
1
 10
58.721306
 20
9.503878
 30
0.0
 10
58.665206
 20
9.503878
 30
0.0
 10
58.627539
 20
9.483845
 30
0.0
 10
58.608304
 20
9.443778
 30
0.0
  0
SPLINE
  5
193
100
AcDbEntity
  8
Ebene_1
 62
7
100
AcDbSpline
 70
8
 71
3
 72
8
 73
4
 74
0
 40
0
 40
0
 40
0
 40
0
 40
1
 40
1
 40
1
 40
1
 10
58.608304
 20
9.443778
 30
0.0
 10
58.589071
 20
9.403711
 30
0.0
 10
58.579454
 20
9.313951
 30
0.0
 10
58.579454
 20
9.174498
 30
0.0
  0
LWPOLYLINE
  5
194
100
AcDbEntity
  8
Ebene_1
 62
7
100
AcDbPolyline
 90
3
 70
0
 10
59.784006
 20
8.806658
 30
0.0
 10
58.867972
 20
8.806658
 30
0.0
 10
58.867972
 20
9.174518
 30
0.0
  0
SPLINE
  5
195
100
AcDbEntity
  8
Ebene_1
 62
7
100
AcDbSpline
 70
8
 71
3
 72
8
 73
4
 74
0
 40
0
 40
0
 40
0
 40
0
 40
1
 40
1
 40
1
 40
1
 10
58.579454
 20
7.669408
 30
0.0
 10
58.579454
 20
7.555608
 30
0.0
 10
58.593881
 20
7.469855
 30
0.0
 10
58.622734
 20
7.412148
 30
0.0
  0
SPLINE
  5
196
100
AcDbEntity
  8
Ebene_1
 62
7
100
AcDbSpline
 70
8
 71
3
 72
8
 73
4
 74
0
 40
0
 40
0
 40
0
 40
0
 40
1
 40
1
 40
1
 40
1
 10
58.622734
 20
7.412148
 30
0.0
 10
58.651587
 20
7.356015
 30
0.0
 10
58.694063
 20
7.327948
 30
0.0
 10
58.750161
 20
7.327948
 30
0.0
  0
SPLINE
  5
197
100
AcDbEntity
  8
Ebene_1
 62
7
100
AcDbSpline
 70
8
 71
3
 72
8
 73
4
 74
0
 40
0
 40
0
 40
0
 40
0
 40
1
 40
1
 40
1
 40
1
 10
58.750161
 20
7.327948
 30
0.0
 10
58.815881
 20
7.327948
 30
0.0
 10
58.859960
 20
7.357615
 30
0.0
 10
58.882397
 20
7.416948
 30
0.0
  0
SPLINE
  5
198
100
AcDbEntity
  8
Ebene_1
 62
7
100
AcDbSpline
 70
8
 71
3
 72
8
 73
4
 74
0
 40
0
 40
0
 40
0
 40
0
 40
1
 40
1
 40
1
 40
1
 10
58.882397
 20
7.416948
 30
0.0
 10
58.906437
 20
7.476281
 30
0.0
 10
58.918457
 20
7.588481
 30
0.0
 10
58.918457
 20
7.753548
 30
0.0
  0
LWPOLYLINE
  5
199
100
AcDbEntity
  8
Ebene_1
 62
7
100
AcDbPolyline
 90
2
 70
0
 10
58.579454
 20
9.174498
 30
0.0
 10
58.579454
 20
7.669408
 30
0.0
  0
SPLINE
  5
19a
100
AcDbEntity
  8
Ebene_1
 62
7
100
AcDbSpline
 70
8
 71
3
 72
8
 73
4
 74
0
 40
0
 40
0
 40
0
 40
0
 40
1
 40
1
 40
1
 40
1
 10
59.784001
 20
8.133428
 30
0.0
 10
59.782401
 20
7.878575
 30
0.0
 10
59.772784
 20
7.687031
 30
0.0
 10
59.755151
 20
7.558798
 30
0.0
  0
SPLINE
  5
19b
100
AcDbEntity
  8
Ebene_1
 62
7
100
AcDbSpline
 70
8
 71
3
 72
8
 73
4
 74
0
 40
0
 40
0
 40
0
 40
0
 40
1
 40
1
 40
1
 40
1
 10
59.755151
 20
7.558798
 30
0.0
 10
59.739124
 20
7.432171
 30
0.0
 10
59.685429
 20
7.301538
 30
0.0
 10
59.594064
 20
7.166898
 30
0.0
  0
SPLINE
  5
19c
100
AcDbEntity
  8
Ebene_1
 62
7
100
AcDbSpline
 70
8
 71
3
 72
8
 73
4
 74
0
 40
0
 40
0
 40
0
 40
0
 40
1
 40
1
 40
1
 40
1
 10
59.594064
 20
7.166898
 30
0.0
 10
59.504303
 20
7.033865
 30
0.0
 10
59.386493
 20
6.932885
 30
0.0
 10
59.240633
 20
6.863958
 30
0.0
  0
SPLINE
  5
19d
100
AcDbEntity
  8
Ebene_1
 62
7
100
AcDbSpline
 70
8
 71
3
 72
8
 73
4
 74
0
 40
0
 40
0
 40
0
 40
0
 40
1
 40
1
 40
1
 40
1
 10
59.240633
 20
6.863958
 30
0.0
 10
59.094773
 20
6.796638
 30
0.0
 10
58.914451
 20
6.762978
 30
0.0
 10
58.699668
 20
6.762978
 30
0.0
  0
SPLINE
  5
19e
100
AcDbEntity
  8
Ebene_1
 62
7
100
AcDbSpline
 70
8
 71
3
 72
8
 73
4
 74
0
 40
0
 40
0
 40
0
 40
0
 40
1
 40
1
 40
1
 40
1
 10
58.699668
 20
6.762978
 30
0.0
 10
58.425579
 20
6.762978
 30
0.0
 10
58.208392
 20
6.809461
 30
0.0
 10
58.048106
 20
6.902428
 30
0.0
  0
SPLINE
  5
19f
100
AcDbEntity
  8
Ebene_1
 62
7
100
AcDbSpline
 70
8
 71
3
 72
8
 73
4
 74
0
 40
0
 40
0
 40
0
 40
0
 40
1
 40
1
 40
1
 40
1
 10
58.048106
 20
6.902428
 30
0.0
 10
57.887820
 20
6.997001
 30
0.0
 10
57.774017
 20
7.128438
 30
0.0
 10
57.706697
 20
7.296738
 30
0.0
  0
SPLINE
  5
1a0
100
AcDbEntity
  8
Ebene_1
 62
7
100
AcDbSpline
 70
8
 71
3
 72
8
 73
4
 74
0
 40
0
 40
0
 40
0
 40
0
 40
1
 40
1
 40
1
 40
1
 10
57.706697
 20
7.296738
 30
0.0
 10
57.640977
 20
7.466638
 30
0.0
 10
57.608117
 20
7.707065
 30
0.0
 10
57.608117
 20
8.018018
 30
0.0
  0
LWPOLYLINE
  5
1a1
100
AcDbEntity
  8
Ebene_1
 62
7
100
AcDbPolyline
 90
3
 70
0
 10
58.918457
 20
7.753548
 30
0.0
 10
58.918457
 20
8.133428
 30
0.0
 10
59.784001
 20
8.133428
 30
0.0
  0
SPLINE
  5
1a2
100
AcDbEntity
  8
Ebene_1
 62
7
100
AcDbSpline
 70
8
 71
3
 72
8
 73
4
 74
0
 40
0
 40
0
 40
0
 40
0
 40
1
 40
1
 40
1
 40
1
 10
57.608117
 20
8.924438
 30
0.0
 10
57.608117
 20
9.195318
 30
0.0
 10
57.635367
 20
9.399681
 30
0.0
 10
57.689867
 20
9.537528
 30
0.0
  0
SPLINE
  5
1a3
100
AcDbEntity
  8
Ebene_1
 62
7
100
AcDbSpline
 70
8
 71
3
 72
8
 73
4
 74
0
 40
0
 40
0
 40
0
 40
0
 40
1
 40
1
 40
1
 40
1
 10
57.689867
 20
9.537528
 30
0.0
 10
57.744367
 20
9.675375
 30
0.0
 10
57.860574
 20
9.797995
 30
0.0
 10
58.038489
 20
9.905388
 30
0.0
  0
SPLINE
  5
1a4
100
AcDbEntity
  8
Ebene_1
 62
7
100
AcDbSpline
 70
8
 71
3
 72
8
 73
4
 74
0
 40
0
 40
0
 40
0
 40
0
 40
1
 40
1
 40
1
 40
1
 10
58.038489
 20
9.905388
 30
0.0
 10
58.216406
 20
10.014381
 30
0.0
 10
58.432792
 20
10.068878
 30
0.0
 10
58.687647
 20
10.068878
 30
0.0
  0
SPLINE
  5
1a5
100
AcDbEntity
  8
Ebene_1
 62
7
100
AcDbSpline
 70
8
 71
3
 72
8
 73
4
 74
0
 40
0
 40
0
 40
0
 40
0
 40
1
 40
1
 40
1
 40
1
 10
58.687647
 20
10.068878
 30
0.0
 10
58.940898
 20
10.068878
 30
0.0
 10
59.157284
 20
10.015181
 30
0.0
 10
59.336805
 20
9.907788
 30
0.0
  0
SPLINE
  5
1a6
100
AcDbEntity
  8
Ebene_1
 62
7
100
AcDbSpline
 70
8
 71
3
 72
8
 73
4
 74
0
 40
0
 40
0
 40
0
 40
0
 40
1
 40
1
 40
1
 40
1
 10
59.336805
 20
9.907788
 30
0.0
 10
59.516325
 20
9.800401
 30
0.0
 10
59.635738
 20
9.664961
 30
0.0
 10
59.695044
 20
9.501468
 30
0.0
  0
SPLINE
  5
1a7
100
AcDbEntity
  8
Ebene_1
 62
7
100
AcDbSpline
 70
8
 71
3
 72
8
 73
4
 74
0
 40
0
 40
0
 40
0
 40
0
 40
1
 40
1
 40
1
 40
1
 10
59.695044
 20
9.501468
 30
0.0
 10
59.754351
 20
9.337975
 30
0.0
 10
59.784004
 20
9.106361
 30
0.0
 10
59.784004
 20
8.806628
 30
0.0
  0
LWPOLYLINE
  5
1a8
100
AcDbEntity
  8
Ebene_1
 62
7
100
AcDbPolyline
 90
2
 70
0
 10
57.608117
 20
8.018018
 30
0.0
 10
57.608117
 20
8.924438
 30
0.0
  0
LWPOLYLINE
  5
1a9
100
AcDbEntity
  8
Ebene_1
 62
7
100
AcDbPolyline
 90
1
 70
1
 10
59.784004
 20
8.806628
 30
0.0
  0
SPLINE
  5
1aa
100
AcDbEntity
  8
Ebene_1
 62
7
100
AcDbSpline
 70
8
 71
3
 72
8
 73
4
 74
0
 40
0
 40
0
 40
0
 40
0
 40
1
 40
1
 40
1
 40
1
 10
62.267637
 20
8.109418
 30
0.0
 10
62.267637
 20
7.822505
 30
0.0
 10
62.253204
 20
7.611728
 30
0.0
 10
62.224337
 20
7.477088
 30
0.0
  0
SPLINE
  5
1ab
100
AcDbEntity
  8
Ebene_1
 62
7
100
AcDbSpline
 70
8
 71
3
 72
8
 73
4
 74
0
 40
0
 40
0
 40
0
 40
0
 40
1
 40
1
 40
1
 40
1
 10
62.224337
 20
7.477088
 30
0.0
 10
62.195470
 20
7.344048
 30
0.0
 10
62.133760
 20
7.219025
 30
0.0
 10
62.039207
 20
7.102018
 30
0.0
  0
SPLINE
  5
1ac
100
AcDbEntity
  8
Ebene_1
 62
7
100
AcDbSpline
 70
8
 71
3
 72
8
 73
4
 74
0
 40
0
 40
0
 40
0
 40
0
 40
1
 40
1
 40
1
 40
1
 10
62.039207
 20
7.102018
 30
0.0
 10
61.944640
 20
6.986611
 30
0.0
 10
61.822824
 20
6.900858
 30
0.0
 10
61.673757
 20
6.844758
 30
0.0
  0
SPLINE
  5
1ad
100
AcDbEntity
  8
Ebene_1
 62
7
100
AcDbSpline
 70
8
 71
3
 72
8
 73
4
 74
0
 40
0
 40
0
 40
0
 40
0
 40
1
 40
1
 40
1
 40
1
 10
61.673757
 20
6.844758
 30
0.0
 10
61.526297
 20
6.790291
 30
0.0
 10
61.356394
 20
6.763058
 30
0.0
 10
61.164047
 20
6.763058
 30
0.0
  0
SPLINE
  5
1ae
100
AcDbEntity
  8
Ebene_1
 62
7
100
AcDbSpline
 70
8
 71
3
 72
8
 73
4
 74
0
 40
0
 40
0
 40
0
 40
0
 40
1
 40
1
 40
1
 40
1
 10
61.164047
 20
6.763058
 30
0.0
 10
60.949267
 20
6.763058
 30
0.0
 10
60.767343
 20
6.786291
 30
0.0
 10
60.618275
 20
6.832758
 30
0.0
  0
SPLINE
  5
1af
100
AcDbEntity
  8
Ebene_1
 62
7
100
AcDbSpline
 70
8
 71
3
 72
8
 73
4
 74
0
 40
0
 40
0
 40
0
 40
0
 40
1
 40
1
 40
1
 40
1
 10
60.618275
 20
6.832758
 30
0.0
 10
60.469209
 20
6.880825
 30
0.0
 10
60.353002
 20
6.952151
 30
0.0
 10
60.269653
 20
7.046738
 30
0.0
  0
SPLINE
  5
1b0
100
AcDbEntity
  8
Ebene_1
 62
7
100
AcDbSpline
 70
8
 71
3
 72
8
 73
4
 74
0
 40
0
 40
0
 40
0
 40
0
 40
1
 40
1
 40
1
 40
1
 10
60.269653
 20
7.046738
 30
0.0
 10
60.187908
 20
7.142911
 30
0.0
 10
60.129403
 20
7.258318
 30
0.0
 10
60.094140
 20
7.392958
 30
0.0
  0
SPLINE
  5
1b1
100
AcDbEntity
  8
Ebene_1
 62
7
100
AcDbSpline
 70
8
 71
3
 72
8
 73
4
 74
0
 40
0
 40
0
 40
0
 40
0
 40
1
 40
1
 40
1
 40
1
 10
60.094140
 20
7.392958
 30
0.0
 10
60.058880
 20
7.529198
 30
0.0
 10
60.041250
 20
7.732761
 30
0.0
 10
60.041250
 20
8.003648
 30
0.0
  0
LWPOLYLINE
  5
1b2
100
AcDbEntity
  8
Ebene_1
 62
7
100
AcDbPolyline
 90
2
 70
0
 10
62.267637
 20
8.890808
 30
0.0
 10
62.267637
 20
8.109418
 30
0.0
  0
SPLINE
  5
1b3
100
AcDbEntity
  8
Ebene_1
 62
7
100
AcDbSpline
 70
8
 71
3
 72
8
 73
4
 74
0
 40
0
 40
0
 40
0
 40
0
 40
1
 40
1
 40
1
 40
1
 10
60.041250
 20
8.821098
 30
0.0
 10
60.041250
 20
9.117631
 30
0.0
 10
60.073307
 20
9.349245
 30
0.0
 10
60.137420
 20
9.515938
 30
0.0
  0
SPLINE
  5
1b4
100
AcDbEntity
  8
Ebene_1
 62
7
100
AcDbSpline
 70
8
 71
3
 72
8
 73
4
 74
0
 40
0
 40
0
 40
0
 40
0
 40
1
 40
1
 40
1
 40
1
 10
60.137420
 20
9.515938
 30
0.0
 10
60.201533
 20
9.682638
 30
0.0
 10
60.316939
 20
9.816478
 30
0.0
 10
60.483637
 20
9.917458
 30
0.0
  0
SPLINE
  5
1b5
100
AcDbEntity
  8
Ebene_1
 62
7
100
AcDbSpline
 70
8
 71
3
 72
8
 73
4
 74
0
 40
0
 40
0
 40
0
 40
0
 40
1
 40
1
 40
1
 40
1
 10
60.483637
 20
9.917458
 30
0.0
 10
60.650334
 20
10.018438
 30
0.0
 10
60.863514
 20
10.068928
 30
0.0
 10
61.123177
 20
10.068928
 30
0.0
  0
SPLINE
  5
1b6
100
AcDbEntity
  8
Ebene_1
 62
7
100
AcDbSpline
 70
8
 71
3
 72
8
 73
4
 74
0
 40
0
 40
0
 40
0
 40
0
 40
1
 40
1
 40
1
 40
1
 10
61.123177
 20
10.068928
 30
0.0
 10
61.341164
 20
10.068928
 30
0.0
 10
61.527897
 20
10.036061
 30
0.0
 10
61.683377
 20
9.970328
 30
0.0
  0
SPLINE
  5
1b7
100
AcDbEntity
  8
Ebene_1
 62
7
100
AcDbSpline
 70
8
 71
3
 72
8
 73
4
 74
0
 40
0
 40
0
 40
0
 40
0
 40
1
 40
1
 40
1
 40
1
 10
61.683377
 20
9.970328
 30
0.0
 10
61.840457
 20
9.906195
 30
0.0
 10
61.961474
 20
9.822045
 30
0.0
 10
62.046427
 20
9.717878
 30
0.0
  0
SPLINE
  5
1b8
100
AcDbEntity
  8
Ebene_1
 62
7
100
AcDbSpline
 70
8
 71
3
 72
8
 73
4
 74
0
 40
0
 40
0
 40
0
 40
0
 40
1
 40
1
 40
1
 40
1
 10
62.046427
 20
9.717878
 30
0.0
 10
62.131374
 20
9.613698
 30
0.0
 10
62.189074
 20
9.506308
 30
0.0
 10
62.219527
 20
9.395708
 30
0.0
  0
SPLINE
  5
1b9
100
AcDbEntity
  8
Ebene_1
 62
7
100
AcDbSpline
 70
8
 71
3
 72
8
 73
4
 74
0
 40
0
 40
0
 40
0
 40
0
 40
1
 40
1
 40
1
 40
1
 10
62.219527
 20
9.395708
 30
0.0
 10
62.251594
 20
9.285108
 30
0.0
 10
62.267627
 20
9.116808
 30
0.0
 10
62.267627
 20
8.890808
 30
0.0
  0
LWPOLYLINE
  5
1ba
100
AcDbEntity
  8
Ebene_1
 62
7
100
AcDbPolyline
 90
2
 70
0
 10
60.041250
 20
8.003648
 30
0.0
 10
60.041250
 20
8.821098
 30
0.0
  0
SPLINE
  5
1bb
100
AcDbEntity
  8
Ebene_1
 62
7
100
AcDbSpline
 70
8
 71
3
 72
8
 73
4
 74
0
 40
0
 40
0
 40
0
 40
0
 40
1
 40
1
 40
1
 40
1
 10
61.296307
 20
9.131238
 30
0.0
 10
61.296307
 20
9.294731
 30
0.0
 10
61.287507
 20
9.397315
 30
0.0
 10
61.269907
 20
9.438988
 30
0.0
  0
SPLINE
  5
1bc
100
AcDbEntity
  8
Ebene_1
 62
7
100
AcDbSpline
 70
8
 71
3
 72
8
 73
4
 74
0
 40
0
 40
0
 40
0
 40
0
 40
1
 40
1
 40
1
 40
1
 10
61.269907
 20
9.438988
 30
0.0
 10
61.252307
 20
9.482255
 30
0.0
 10
61.214640
 20
9.503888
 30
0.0
 10
61.156907
 20
9.503888
 30
0.0
  0
SPLINE
  5
1bd
100
AcDbEntity
  8
Ebene_1
 62
7
100
AcDbSpline
 70
8
 71
3
 72
8
 73
4
 74
0
 40
0
 40
0
 40
0
 40
0
 40
1
 40
1
 40
1
 40
1
 10
61.156907
 20
9.503888
 30
0.0
 10
61.099174
 20
9.503888
 30
0.0
 10
61.060704
 20
9.482255
 30
0.0
 10
61.041497
 20
9.438988
 30
0.0
  0
SPLINE
  5
1be
100
AcDbEntity
  8
Ebene_1
 62
7
100
AcDbSpline
 70
8
 71
3
 72
8
 73
4
 74
0
 40
0
 40
0
 40
0
 40
0
 40
1
 40
1
 40
1
 40
1
 10
61.041497
 20
9.438988
 30
0.0
 10
61.022230
 20
9.397321
 30
0.0
 10
61.012597
 20
9.294738
 30
0.0
 10
61.012597
 20
9.131238
 30
0.0
  0
LWPOLYLINE
  5
1bf
100
AcDbEntity
  8
Ebene_1
 62
7
100
AcDbPolyline
 90
1
 70
1
 10
62.267627
 20
8.890808
 30
0.0
  0
SPLINE
  5
1c0
100
AcDbEntity
  8
Ebene_1
 62
7
100
AcDbSpline
 70
8
 71
3
 72
8
 73
4
 74
0
 40
0
 40
0
 40
0
 40
0
 40
1
 40
1
 40
1
 40
1
 10
61.012597
 20
7.691068
 30
0.0
 10
61.012597
 20
7.540401
 30
0.0
 10
61.022230
 20
7.441825
 30
0.0
 10
61.041497
 20
7.395338
 30
0.0
  0
SPLINE
  5
1c1
100
AcDbEntity
  8
Ebene_1
 62
7
100
AcDbSpline
 70
8
 71
3
 72
8
 73
4
 74
0
 40
0
 40
0
 40
0
 40
0
 40
1
 40
1
 40
1
 40
1
 10
61.041497
 20
7.395338
 30
0.0
 10
61.060697
 20
7.350471
 30
0.0
 10
61.098364
 20
7.328038
 30
0.0
 10
61.154497
 20
7.328038
 30
0.0
  0
SPLINE
  5
1c2
100
AcDbEntity
  8
Ebene_1
 62
7
100
AcDbSpline
 70
8
 71
3
 72
8
 73
4
 74
0
 40
0
 40
0
 40
0
 40
0
 40
1
 40
1
 40
1
 40
1
 10
61.154497
 20
7.328038
 30
0.0
 10
61.212230
 20
7.328038
 30
0.0
 10
61.249900
 20
7.348871
 30
0.0
 10
61.267507
 20
7.390538
 30
0.0
  0
SPLINE
  5
1c3
100
AcDbEntity
  8
Ebene_1
 62
7
100
AcDbSpline
 70
8
 71
3
 72
8
 73
4
 74
0
 40
0
 40
0
 40
0
 40
0
 40
1
 40
1
 40
1
 40
1
 10
61.267507
 20
7.390538
 30
0.0
 10
61.286774
 20
7.432205
 30
0.0
 10
61.296407
 20
7.521965
 30
0.0
 10
61.296407
 20
7.659818
 30
0.0
  0
LWPOLYLINE
  5
1c4
100
AcDbEntity
  8
Ebene_1
 62
7
100
AcDbPolyline
 90
2
 70
0
 10
61.012597
 20
9.131238
 30
0.0
 10
61.012597
 20
7.691068
 30
0.0
  0
LWPOLYLINE
  5
1c5
100
AcDbEntity
  8
Ebene_1
 62
7
100
AcDbPolyline
 90
2
 70
0
 10
61.296407
 20
7.659818
 30
0.0
 10
61.296307
 20
9.131238
 30
0.0
  0
LWPOLYLINE
  5
1c6
100
AcDbEntity
  8
Ebene_1
 62
7
100
AcDbPolyline
 90
11
 70
1
 10
64.681537
 20
10.011208
 30
0.0
 10
64.287237
 20
8.739338
 30
0.0
 10
64.799357
 20
6.820718
 30
0.0
 10
63.864087
 20
6.820718
 30
0.0
 10
63.561147
 20
8.210398
 30
0.0
 10
63.561147
 20
6.820718
 30
0.0
 10
62.589807
 20
6.820718
 30
0.0
 10
62.589807
 20
10.713258
 30
0.0
 10
63.561147
 20
10.713258
 30
0.0
 10
63.561147
 20
9.078338
 30
0.0
 10
63.864087
 20
10.011208
 30
0.0
  0
LWPOLYLINE
  5
1c7
100
AcDbEntity
  8
Ebene_1
 62
7
100
AcDbPolyline
 90
4
 70
1
 10
65.946197
 20
10.713258
 30
0.0
 10
65.946197
 20
10.205948
 30
0.0
 10
64.946017
 20
10.205948
 30
0.0
 10
64.946017
 20
10.713258
 30
0.0
  0
LWPOLYLINE
  5
1c8
100
AcDbEntity
  8
Ebene_1
 62
7
100
AcDbPolyline
 90
4
 70
1
 10
65.946197
 20
10.011208
 30
0.0
 10
65.946197
 20
6.820718
 30
0.0
 10
64.946017
 20
6.820718
 30
0.0
 10
64.946017
 20
10.011208
 30
0.0
  0
SPLINE
  5
1c9
100
AcDbEntity
  8
Ebene_1
 62
7
100
AcDbSpline
 70
8
 71
3
 72
8
 73
4
 74
0
 40
0
 40
0
 40
0
 40
0
 40
1
 40
1
 40
1
 40
1
 10
23.070867
 20
21.530392
 30
0.0
 10
24.094406
 20
21.530392
 30
0.0
 10
24.786498
 20
21.490893
 30
0.0
 10
25.147141
 20
21.411895
 30
0.0
  0
SPLINE
  5
1ca
100
AcDbEntity
  8
Ebene_1
 62
7
100
AcDbSpline
 70
8
 71
3
 72
8
 73
4
 74
0
 40
0
 40
0
 40
0
 40
0
 40
1
 40
1
 40
1
 40
1
 10
25.147141
 20
21.411895
 30
0.0
 10
25.511219
 20
21.332897
 30
0.0
 10
25.806603
 20
21.130250
 30
0.0
 10
26.033293
 20
20.803954
 30
0.0
  0
SPLINE
  5
1cb
100
AcDbEntity
  8
Ebene_1
 62
7
100
AcDbSpline
 70
8
 71
3
 72
8
 73
4
 74
0
 40
0
 40
0
 40
0
 40
0
 40
1
 40
1
 40
1
 40
1
 10
26.033293
 20
20.803954
 30
0.0
 10
26.263418
 20
20.481090
 30
0.0
 10
26.378480
 20
19.964168
 30
0.0
 10
26.378480
 20
19.253188
 30
0.0
  0
SPLINE
  5
1cc
100
AcDbEntity
  8
Ebene_1
 62
7
100
AcDbSpline
 70
8
 71
3
 72
8
 73
4
 74
0
 40
0
 40
0
 40
0
 40
0
 40
1
 40
1
 40
1
 40
1
 10
26.378480
 20
19.253188
 30
0.0
 10
26.378480
 20
18.604028
 30
0.0
 10
26.297765
 20
18.167821
 30
0.0
 10
26.136334
 20
17.944568
 30
0.0
  0
SPLINE
  5
1cd
100
AcDbEntity
  8
Ebene_1
 62
7
100
AcDbSpline
 70
8
 71
3
 72
8
 73
4
 74
0
 40
0
 40
0
 40
0
 40
0
 40
1
 40
1
 40
1
 40
1
 10
26.136334
 20
17.944568
 30
0.0
 10
25.974903
 20
17.721315
 30
0.0
 10
25.657194
 20
17.587361
 30
0.0
 10
25.183205
 20
17.542708
 30
0.0
  0
SPLINE
  5
1ce
100
AcDbEntity
  8
Ebene_1
 62
7
100
AcDbSpline
 70
8
 71
3
 72
8
 73
4
 74
0
 40
0
 40
0
 40
0
 40
0
 40
1
 40
1
 40
1
 40
1
 10
25.183205
 20
17.542708
 30
0.0
 10
25.612542
 20
17.436235
 30
0.0
 10
25.901057
 20
17.293695
 30
0.0
 10
26.048749
 20
17.115088
 30
0.0
  0
SPLINE
  5
1cf
100
AcDbEntity
  8
Ebene_1
 62
7
100
AcDbSpline
 70
8
 71
3
 72
8
 73
4
 74
0
 40
0
 40
0
 40
0
 40
0
 40
1
 40
1
 40
1
 40
1
 10
26.048749
 20
17.115088
 30
0.0
 10
26.196441
 20
16.936481
 30
0.0
 10
26.287461
 20
16.771615
 30
0.0
 10
26.321808
 20
16.620488
 30
0.0
  0
SPLINE
  5
1d0
100
AcDbEntity
  8
Ebene_1
 62
7
100
AcDbSpline
 70
8
 71
3
 72
8
 73
4
 74
0
 40
0
 40
0
 40
0
 40
0
 40
1
 40
1
 40
1
 40
1
 10
26.321808
 20
16.620488
 30
0.0
 10
26.359588
 20
16.472801
 30
0.0
 10
26.378478
 20
16.062358
 30
0.0
 10
26.378478
 20
15.389158
 30
0.0
  0
LWPOLYLINE
  5
1d1
100
AcDbEntity
  8
Ebene_1
 62
7
100
AcDbPolyline
 90
2
 70
0
 10
21.535557
 20
21.530392
 30
0.0
 10
23.070867
 20
21.530392
 30
0.0
  0
SPLINE
  5
1d2
100
AcDbEntity
  8
Ebene_1
 62
7
100
AcDbSpline
 70
8
 71
3
 72
8
 73
4
 74
0
 40
0
 40
0
 40
0
 40
0
 40
1
 40
1
 40
1
 40
1
 10
24.364028
 20
15.961028
 30
0.0
 10
24.364028
 20
16.407541
 30
0.0
 10
24.327964
 20
16.684035
 30
0.0
 10
24.255835
 20
16.790508
 30
0.0
  0
SPLINE
  5
1d3
100
AcDbEntity
  8
Ebene_1
 62
7
100
AcDbSpline
 70
8
 71
3
 72
8
 73
4
 74
0
 40
0
 40
0
 40
0
 40
0
 40
1
 40
1
 40
1
 40
1
 10
24.255835
 20
16.790508
 30
0.0
 10
24.187141
 20
16.896988
 30
0.0
 10
24.003385
 20
16.950228
 30
0.0
 10
23.704566
 20
16.950228
 30
0.0
  0
LWPOLYLINE
  5
1d4
100
AcDbEntity
  8
Ebene_1
 62
7
100
AcDbPolyline
 90
4
 70
0
 10
26.378478
 20
15.389158
 30
0.0
 10
26.378478
 20
13.189228
 30
0.0
 10
24.364028
 20
13.189228
 30
0.0
 10
24.364028
 20
15.961028
 30
0.0
  0
LWPOLYLINE
  5
1d5
100
AcDbEntity
  8
Ebene_1
 62
7
100
AcDbPolyline
 90
4
 70
0
 10
23.704566
 20
16.950228
 30
0.0
 10
23.704566
 20
13.189228
 30
0.0
 10
21.535557
 20
13.189228
 30
0.0
 10
21.535557
 20
21.530392
 30
0.0
  0
SPLINE
  5
1d6
100
AcDbEntity
  8
Ebene_1
 62
7
100
AcDbSpline
 70
8
 71
3
 72
8
 73
4
 74
0
 40
0
 40
0
 40
0
 40
0
 40
1
 40
1
 40
1
 40
1
 10
23.704568
 20
18.248538
 30
0.0
 10
23.948431
 20
18.248538
 30
0.0
 10
24.118449
 20
18.281171
 30
0.0
 10
24.214621
 20
18.346438
 30
0.0
  0
SPLINE
  5
1d7
100
AcDbEntity
  8
Ebene_1
 62
7
100
AcDbSpline
 70
8
 71
3
 72
8
 73
4
 74
0
 40
0
 40
0
 40
0
 40
0
 40
1
 40
1
 40
1
 40
1
 10
24.214621
 20
18.346438
 30
0.0
 10
24.314227
 20
18.415131
 30
0.0
 10
24.364030
 20
18.633235
 30
0.0
 10
24.364030
 20
19.000748
 30
0.0
  0
LWPOLYLINE
  5
1d8
100
AcDbEntity
  8
Ebene_1
 62
7
100
AcDbPolyline
 90
2
 70
0
 10
23.704568
 20
20.103278
 30
0.0
 10
23.704568
 20
18.248538
 30
0.0
  0
SPLINE
  5
1d9
100
AcDbEntity
  8
Ebene_1
 62
7
100
AcDbSpline
 70
8
 71
3
 72
8
 73
4
 74
0
 40
0
 40
0
 40
0
 40
0
 40
1
 40
1
 40
1
 40
1
 10
24.364030
 20
19.459278
 30
0.0
 10
24.364030
 20
19.723751
 30
0.0
 10
24.315944
 20
19.897205
 30
0.0
 10
24.219773
 20
19.979638
 30
0.0
  0
SPLINE
  5
1da
100
AcDbEntity
  8
Ebene_1
 62
7
100
AcDbSpline
 70
8
 71
3
 72
8
 73
4
 74
0
 40
0
 40
0
 40
0
 40
0
 40
1
 40
1
 40
1
 40
1
 10
24.219773
 20
19.979638
 30
0.0
 10
24.127036
 20
20.062071
 30
0.0
 10
23.955301
 20
20.103288
 30
0.0
 10
23.704568
 20
20.103288
 30
0.0
  0
LWPOLYLINE
  5
1db
100
AcDbEntity
  8
Ebene_1
 62
7
100
AcDbPolyline
 90
2
 70
0
 10
24.364030
 20
19.000748
 30
0.0
 10
24.364030
 20
19.459278
 30
0.0
  0
LWPOLYLINE
  5
1dc
100
AcDbEntity
  8
Ebene_1
 62
7
100
AcDbPolyline
 90
1
 70
1
 10
23.704568
 20
20.103288
 30
0.0
  0
LWPOLYLINE
  5
1dd
100
AcDbEntity
  8
Ebene_1
 62
7
100
AcDbPolyline
 90
10
 70
1
 10
27.223416
 20
21.530392
 30
0.0
 10
30.896825
 20
21.530392
 30
0.0
 10
30.896825
 20
19.861128
 30
0.0
 10
29.392427
 20
19.861128
 30
0.0
 10
29.392427
 20
18.279448
 30
0.0
 10
30.731959
 20
18.279448
 30
0.0
 10
30.731959
 20
16.692618
 30
0.0
 10
29.392427
 20
16.692618
 30
0.0
 10
29.392427
 20
13.189228
 30
0.0
 10
27.223416
 20
13.189228
 30
0.0
  0
LWPOLYLINE
  5
1de
100
AcDbEntity
  8
Ebene_1
 62
7
100
AcDbPolyline
 90
4
 70
1
 10
33.596497
 20
21.530392
 30
0.0
 10
33.596497
 20
13.189228
 30
0.0
 10
31.427485
 20
13.189228
 30
0.0
 10
31.427485
 20
21.530392
 30
0.0
  0
SPLINE
  5
1df
100
AcDbEntity
  8
Ebene_1
 62
7
100
AcDbSpline
 70
8
 71
3
 72
8
 73
4
 74
0
 40
0
 40
0
 40
0
 40
0
 40
1
 40
1
 40
1
 40
1
 10
36.100392
 20
21.530392
 30
0.0
 10
37.147975
 20
21.530392
 30
0.0
 10
37.855522
 20
21.482306
 30
0.0
 10
38.223035
 20
21.386135
 30
0.0
  0
SPLINE
  5
1e0
100
AcDbEntity
  8
Ebene_1
 62
7
100
AcDbSpline
 70
8
 71
3
 72
8
 73
4
 74
0
 40
0
 40
0
 40
0
 40
0
 40
1
 40
1
 40
1
 40
1
 10
38.223035
 20
21.386135
 30
0.0
 10
38.593982
 20
21.289964
 30
0.0
 10
38.875627
 20
21.131968
 30
0.0
 10
39.067970
 20
20.912147
 30
0.0
  0
SPLINE
  5
1e1
100
AcDbEntity
  8
Ebene_1
 62
7
100
AcDbSpline
 70
8
 71
3
 72
8
 73
4
 74
0
 40
0
 40
0
 40
0
 40
0
 40
1
 40
1
 40
1
 40
1
 10
39.067970
 20
20.912147
 30
0.0
 10
39.260313
 20
20.692328
 30
0.0
 10
39.380528
 20
20.446748
 30
0.0
 10
39.428613
 20
20.175408
 30
0.0
  0
SPLINE
  5
1e2
100
AcDbEntity
  8
Ebene_1
 62
7
100
AcDbSpline
 70
8
 71
3
 72
8
 73
4
 74
0
 40
0
 40
0
 40
0
 40
0
 40
1
 40
1
 40
1
 40
1
 10
39.428613
 20
20.175408
 30
0.0
 10
39.476700
 20
19.907501
 30
0.0
 10
39.500743
 20
19.378558
 30
0.0
 10
39.500743
 20
18.588578
 30
0.0
  0
LWPOLYLINE
  5
1e3
100
AcDbEntity
  8
Ebene_1
 62
7
100
AcDbPolyline
 90
2
 70
0
 10
34.477497
 20
21.530392
 30
0.0
 10
36.100392
 20
21.530392
 30
0.0
  0
SPLINE
  5
1e4
100
AcDbEntity
  8
Ebene_1
 62
7
100
AcDbSpline
 70
8
 71
3
 72
8
 73
4
 74
0
 40
0
 40
0
 40
0
 40
0
 40
1
 40
1
 40
1
 40
1
 10
39.500743
 20
15.667368
 30
0.0
 10
39.500743
 20
14.918601
 30
0.0
 10
39.464679
 20
14.417135
 30
0.0
 10
39.392550
 20
14.162968
 30
0.0
  0
SPLINE
  5
1e5
100
AcDbEntity
  8
Ebene_1
 62
7
100
AcDbSpline
 70
8
 71
3
 72
8
 73
4
 74
0
 40
0
 40
0
 40
0
 40
0
 40
1
 40
1
 40
1
 40
1
 10
39.392550
 20
14.162968
 30
0.0
 10
39.323856
 20
13.912235
 30
0.0
 10
39.201924
 20
13.714738
 30
0.0
 10
39.026755
 20
13.570478
 30
0.0
  0
SPLINE
  5
1e6
100
AcDbEntity
  8
Ebene_1
 62
7
100
AcDbSpline
 70
8
 71
3
 72
8
 73
4
 74
0
 40
0
 40
0
 40
0
 40
0
 40
1
 40
1
 40
1
 40
1
 10
39.026755
 20
13.570478
 30
0.0
 10
38.851585
 20
13.429658
 30
0.0
 10
38.635199
 20
13.330051
 30
0.0
 10
38.377597
 20
13.271658
 30
0.0
  0
SPLINE
  5
1e7
100
AcDbEntity
  8
Ebene_1
 62
7
100
AcDbSpline
 70
8
 71
3
 72
8
 73
4
 74
0
 40
0
 40
0
 40
0
 40
0
 40
1
 40
1
 40
1
 40
1
 10
38.377597
 20
13.271658
 30
0.0
 10
38.119995
 20
13.216725
 30
0.0
 10
37.731874
 20
13.189258
 30
0.0
 10
37.213235
 20
13.189258
 30
0.0
  0
LWPOLYLINE
  5
1e8
100
AcDbEntity
  8
Ebene_1
 62
7
100
AcDbPolyline
 90
2
 70
0
 10
39.500743
 20
18.588578
 30
0.0
 10
39.500743
 20
15.667368
 30
0.0
  0
LWPOLYLINE
  5
1e9
100
AcDbEntity
  8
Ebene_1
 62
7
100
AcDbPolyline
 90
3
 70
0
 10
37.213235
 20
13.189258
 30
0.0
 10
34.477497
 20
13.189258
 30
0.0
 10
34.477497
 20
21.530392
 30
0.0
  0
SPLINE
  5
1ea
100
AcDbEntity
  8
Ebene_1
 62
7
100
AcDbSpline
 70
8
 71
3
 72
8
 73
4
 74
0
 40
0
 40
0
 40
0
 40
0
 40
1
 40
1
 40
1
 40
1
 10
36.646508
 20
14.616348
 30
0.0
 10
36.959066
 20
14.616348
 30
0.0
 10
37.151409
 20
14.678171
 30
0.0
 10
37.223538
 20
14.801818
 30
0.0
  0
SPLINE
  5
1eb
100
AcDbEntity
  8
Ebene_1
 62
7
100
AcDbSpline
 70
8
 71
3
 72
8
 73
4
 74
0
 40
0
 40
0
 40
0
 40
0
 40
1
 40
1
 40
1
 40
1
 10
37.223538
 20
14.801818
 30
0.0
 10
37.295667
 20
14.928905
 30
0.0
 10
37.331731
 20
15.270658
 30
0.0
 10
37.331731
 20
15.827078
 30
0.0
  0
LWPOLYLINE
  5
1ec
100
AcDbEntity
  8
Ebene_1
 62
7
100
AcDbPolyline
 90
2
 70
0
 10
36.646508
 20
20.103278
 30
0.0
 10
36.646508
 20
14.616348
 30
0.0
  0
SPLINE
  5
1ed
100
AcDbEntity
  8
Ebene_1
 62
7
100
AcDbSpline
 70
8
 71
3
 72
8
 73
4
 74
0
 40
0
 40
0
 40
0
 40
0
 40
1
 40
1
 40
1
 40
1
 10
37.331731
 20
19.067718
 30
0.0
 10
37.331731
 20
19.445531
 30
0.0
 10
37.319708
 20
19.687675
 30
0.0
 10
37.295661
 20
19.794148
 30
0.0
  0
SPLINE
  5
1ee
100
AcDbEntity
  8
Ebene_1
 62
7
100
AcDbSpline
 70
8
 71
3
 72
8
 73
4
 74
0
 40
0
 40
0
 40
0
 40
0
 40
1
 40
1
 40
1
 40
1
 10
37.295661
 20
19.794148
 30
0.0
 10
37.271621
 20
19.900628
 30
0.0
 10
37.216666
 20
19.977911
 30
0.0
 10
37.130796
 20
20.025998
 30
0.0
  0
SPLINE
  5
1ef
100
AcDbEntity
  8
Ebene_1
 62
7
100
AcDbSpline
 70
8
 71
3
 72
8
 73
4
 74
0
 40
0
 40
0
 40
0
 40
0
 40
1
 40
1
 40
1
 40
1
 10
37.130796
 20
20.025998
 30
0.0
 10
37.044929
 20
20.077531
 30
0.0
 10
36.883498
 20
20.103298
 30
0.0
 10
36.646503
 20
20.103298
 30
0.0
  0
LWPOLYLINE
  5
1f0
100
AcDbEntity
  8
Ebene_1
 62
7
100
AcDbPolyline
 90
2
 70
0
 10
37.331731
 20
15.827078
 30
0.0
 10
37.331731
 20
19.067718
 30
0.0
  0
LWPOLYLINE
  5
1f1
100
AcDbEntity
  8
Ebene_1
 62
7
100
AcDbPolyline
 90
1
 70
1
 10
36.646503
 20
20.103298
 30
0.0
  0
LWPOLYLINE
  5
1f2
100
AcDbEntity
  8
Ebene_1
 62
7
100
AcDbPolyline
 90
4
 70
1
 10
42.798051
 20
17.326318
 30
0.0
 10
42.798051
 20
15.888898
 30
0.0
 10
40.062314
 20
15.888898
 30
0.0
 10
40.062314
 20
17.326318
 30
0.0
  0
LWPOLYLINE
  5
1f3
100
AcDbEntity
  8
Ebene_1
 62
7
100
AcDbPolyline
 90
6
 70
1
 10
45.590461
 20
21.530392
 30
0.0
 10
45.590461
 20
14.858488
 30
0.0
 10
46.909385
 20
14.858488
 30
0.0
 10
46.909385
 20
13.189228
 30
0.0
 10
43.421450
 20
13.189228
 30
0.0
 10
43.421450
 20
21.530392
 30
0.0
  0
SPLINE
  5
1f4
100
AcDbEntity
  8
Ebene_1
 62
7
100
AcDbSpline
 70
8
 71
3
 72
8
 73
4
 74
0
 40
0
 40
0
 40
0
 40
0
 40
1
 40
1
 40
1
 40
1
 10
52.087190
 20
15.950728
 30
0.0
 10
52.087190
 20
15.335915
 30
0.0
 10
52.056277
 20
14.884251
 30
0.0
 10
51.994450
 20
14.595738
 30
0.0
  0
SPLINE
  5
1f5
100
AcDbEntity
  8
Ebene_1
 62
7
100
AcDbSpline
 70
8
 71
3
 72
8
 73
4
 74
0
 40
0
 40
0
 40
0
 40
0
 40
1
 40
1
 40
1
 40
1
 10
51.994450
 20
14.595738
 30
0.0
 10
51.932623
 20
14.310658
 30
0.0
 10
51.800388
 20
14.042751
 30
0.0
 10
51.597743
 20
13.792018
 30
0.0
  0
SPLINE
  5
1f6
100
AcDbEntity
  8
Ebene_1
 62
7
100
AcDbSpline
 70
8
 71
3
 72
8
 73
4
 74
0
 40
0
 40
0
 40
0
 40
0
 40
1
 40
1
 40
1
 40
1
 10
51.597743
 20
13.792018
 30
0.0
 10
51.395096
 20
13.544718
 30
0.0
 10
51.134059
 20
13.360961
 30
0.0
 10
50.814632
 20
13.240748
 30
0.0
  0
SPLINE
  5
1f7
100
AcDbEntity
  8
Ebene_1
 62
7
100
AcDbSpline
 70
8
 71
3
 72
8
 73
4
 74
0
 40
0
 40
0
 40
0
 40
0
 40
1
 40
1
 40
1
 40
1
 10
50.814632
 20
13.240748
 30
0.0
 10
50.498639
 20
13.123968
 30
0.0
 10
50.134561
 20
13.065578
 30
0.0
 10
49.722398
 20
13.065578
 30
0.0
  0
SPLINE
  5
1f8
100
AcDbEntity
  8
Ebene_1
 62
7
100
AcDbSpline
 70
8
 71
3
 72
8
 73
4
 74
0
 40
0
 40
0
 40
0
 40
0
 40
1
 40
1
 40
1
 40
1
 10
49.722398
 20
13.065578
 30
0.0
 10
49.262149
 20
13.065578
 30
0.0
 10
48.872310
 20
13.115381
 30
0.0
 10
48.552883
 20
13.214988
 30
0.0
  0
SPLINE
  5
1f9
100
AcDbEntity
  8
Ebene_1
 62
7
100
AcDbSpline
 70
8
 71
3
 72
8
 73
4
 74
0
 40
0
 40
0
 40
0
 40
0
 40
1
 40
1
 40
1
 40
1
 10
48.552883
 20
13.214988
 30
0.0
 10
48.233456
 20
13.318028
 30
0.0
 10
47.984441
 20
13.470871
 30
0.0
 10
47.805837
 20
13.673518
 30
0.0
  0
SPLINE
  5
1fa
100
AcDbEntity
  8
Ebene_1
 62
7
100
AcDbSpline
 70
8
 71
3
 72
8
 73
4
 74
0
 40
0
 40
0
 40
0
 40
0
 40
1
 40
1
 40
1
 40
1
 10
47.805837
 20
13.673518
 30
0.0
 10
47.630667
 20
13.879605
 30
0.0
 10
47.505300
 20
14.126905
 30
0.0
 10
47.429737
 20
14.415418
 30
0.0
  0
SPLINE
  5
1fb
100
AcDbEntity
  8
Ebene_1
 62
7
100
AcDbSpline
 70
8
 71
3
 72
8
 73
4
 74
0
 40
0
 40
0
 40
0
 40
0
 40
1
 40
1
 40
1
 40
1
 10
47.429737
 20
14.415418
 30
0.0
 10
47.354174
 20
14.707365
 30
0.0
 10
47.316392
 20
15.143571
 30
0.0
 10
47.316392
 20
15.724038
 30
0.0
  0
LWPOLYLINE
  5
1fc
100
AcDbEntity
  8
Ebene_1
 62
7
100
AcDbPolyline
 90
2
 70
0
 10
52.087190
 20
17.625138
 30
0.0
 10
52.087190
 20
15.950728
 30
0.0
  0
SPLINE
  5
1fd
100
AcDbEntity
  8
Ebene_1
 62
7
100
AcDbSpline
 70
8
 71
3
 72
8
 73
4
 74
0
 40
0
 40
0
 40
0
 40
0
 40
1
 40
1
 40
1
 40
1
 10
47.316392
 20
17.475728
 30
0.0
 10
47.316392
 20
18.111148
 30
0.0
 10
47.385086
 20
18.607465
 30
0.0
 10
47.522474
 20
18.964678
 30
0.0
  0
SPLINE
  5
1fe
100
AcDbEntity
  8
Ebene_1
 62
7
100
AcDbSpline
 70
8
 71
3
 72
8
 73
4
 74
0
 40
0
 40
0
 40
0
 40
0
 40
1
 40
1
 40
1
 40
1
 10
47.522474
 20
18.964678
 30
0.0
 10
47.659862
 20
19.321885
 30
0.0
 10
47.907160
 20
19.608681
 30
0.0
 10
48.264369
 20
19.825068
 30
0.0
  0
SPLINE
  5
1ff
100
AcDbEntity
  8
Ebene_1
 62
7
100
AcDbSpline
 70
8
 71
3
 72
8
 73
4
 74
0
 40
0
 40
0
 40
0
 40
0
 40
1
 40
1
 40
1
 40
1
 10
48.264369
 20
19.825068
 30
0.0
 10
48.621578
 20
20.041455
 30
0.0
 10
49.078392
 20
20.149648
 30
0.0
 10
49.634813
 20
20.149648
 30
0.0
  0
SPLINE
  5
200
100
AcDbEntity
  8
Ebene_1
 62
7
100
AcDbSpline
 70
8
 71
3
 72
8
 73
4
 74
0
 40
0
 40
0
 40
0
 40
0
 40
1
 40
1
 40
1
 40
1
 10
49.634813
 20
20.149648
 30
0.0
 10
50.101932
 20
20.149648
 30
0.0
 10
50.502074
 20
20.079235
 30
0.0
 10
50.835240
 20
19.938408
 30
0.0
  0
SPLINE
  5
201
100
AcDbEntity
  8
Ebene_1
 62
7
100
AcDbSpline
 70
8
 71
3
 72
8
 73
4
 74
0
 40
0
 40
0
 40
0
 40
0
 40
1
 40
1
 40
1
 40
1
 10
50.835240
 20
19.938408
 30
0.0
 10
51.171840
 20
19.801021
 30
0.0
 10
51.431160
 20
19.620701
 30
0.0
 10
51.613199
 20
19.397448
 30
0.0
  0
SPLINE
  5
202
100
AcDbEntity
  8
Ebene_1
 62
7
100
AcDbSpline
 70
8
 71
3
 72
8
 73
4
 74
0
 40
0
 40
0
 40
0
 40
0
 40
1
 40
1
 40
1
 40
1
 10
51.613199
 20
19.397448
 30
0.0
 10
51.795238
 20
19.174188
 30
0.0
 10
51.918887
 20
18.944061
 30
0.0
 10
51.984146
 20
18.707068
 30
0.0
  0
SPLINE
  5
203
100
AcDbEntity
  8
Ebene_1
 62
7
100
AcDbSpline
 70
8
 71
3
 72
8
 73
4
 74
0
 40
0
 40
0
 40
0
 40
0
 40
1
 40
1
 40
1
 40
1
 10
51.984146
 20
18.707068
 30
0.0
 10
52.052840
 20
18.470075
 30
0.0
 10
52.087187
 20
18.109431
 30
0.0
 10
52.087187
 20
17.625138
 30
0.0
  0
LWPOLYLINE
  5
204
100
AcDbEntity
  8
Ebene_1
 62
7
100
AcDbPolyline
 90
2
 70
0
 10
47.316392
 20
15.724038
 30
0.0
 10
47.316392
 20
17.475728
 30
0.0
  0
SPLINE
  5
205
100
AcDbEntity
  8
Ebene_1
 62
7
100
AcDbSpline
 70
8
 71
3
 72
8
 73
4
 74
0
 40
0
 40
0
 40
0
 40
0
 40
1
 40
1
 40
1
 40
1
 10
50.005763
 20
18.140348
 30
0.0
 10
50.005763
 20
18.490688
 30
0.0
 10
49.986873
 20
18.710508
 30
0.0
 10
49.949093
 20
18.799808
 30
0.0
  0
SPLINE
  5
206
100
AcDbEntity
  8
Ebene_1
 62
7
100
AcDbSpline
 70
8
 71
3
 72
8
 73
4
 74
0
 40
0
 40
0
 40
0
 40
0
 40
1
 40
1
 40
1
 40
1
 10
49.949093
 20
18.799808
 30
0.0
 10
49.911313
 20
18.892548
 30
0.0
 10
49.830598
 20
18.938918
 30
0.0
 10
49.706947
 20
18.938918
 30
0.0
  0
SPLINE
  5
207
100
AcDbEntity
  8
Ebene_1
 62
7
100
AcDbSpline
 70
8
 71
3
 72
8
 73
4
 74
0
 40
0
 40
0
 40
0
 40
0
 40
1
 40
1
 40
1
 40
1
 10
49.706947
 20
18.938918
 30
0.0
 10
49.583298
 20
18.938918
 30
0.0
 10
49.500865
 20
18.892548
 30
0.0
 10
49.459648
 20
18.799808
 30
0.0
  0
SPLINE
  5
208
100
AcDbEntity
  8
Ebene_1
 62
7
100
AcDbSpline
 70
8
 71
3
 72
8
 73
4
 74
0
 40
0
 40
0
 40
0
 40
0
 40
1
 40
1
 40
1
 40
1
 10
49.459648
 20
18.799808
 30
0.0
 10
49.418435
 20
18.710508
 30
0.0
 10
49.397828
 20
18.490688
 30
0.0
 10
49.397828
 20
18.140348
 30
0.0
  0
LWPOLYLINE
  5
209
100
AcDbEntity
  8
Ebene_1
 62
7
100
AcDbPolyline
 90
1
 70
1
 10
52.087187
 20
17.625138
 30
0.0
  0
SPLINE
  5
20a
100
AcDbEntity
  8
Ebene_1
 62
7
100
AcDbSpline
 70
8
 71
3
 72
8
 73
4
 74
0
 40
0
 40
0
 40
0
 40
0
 40
1
 40
1
 40
1
 40
1
 10
49.397828
 20
15.054268
 30
0.0
 10
49.397828
 20
14.731408
 30
0.0
 10
49.418435
 20
14.520175
 30
0.0
 10
49.459648
 20
14.420568
 30
0.0
  0
SPLINE
  5
20b
100
AcDbEntity
  8
Ebene_1
 62
7
100
AcDbSpline
 70
8
 71
3
 72
8
 73
4
 74
0
 40
0
 40
0
 40
0
 40
0
 40
1
 40
1
 40
1
 40
1
 10
49.459648
 20
14.420568
 30
0.0
 10
49.500868
 20
14.324395
 30
0.0
 10
49.581584
 20
14.276308
 30
0.0
 10
49.701795
 20
14.276308
 30
0.0
  0
SPLINE
  5
20c
100
AcDbEntity
  8
Ebene_1
 62
7
100
AcDbSpline
 70
8
 71
3
 72
8
 73
4
 74
0
 40
0
 40
0
 40
0
 40
0
 40
1
 40
1
 40
1
 40
1
 10
49.701795
 20
14.276308
 30
0.0
 10
49.825444
 20
14.276308
 30
0.0
 10
49.906159
 20
14.320961
 30
0.0
 10
49.943941
 20
14.410268
 30
0.0
  0
SPLINE
  5
20d
100
AcDbEntity
  8
Ebene_1
 62
7
100
AcDbSpline
 70
8
 71
3
 72
8
 73
4
 74
0
 40
0
 40
0
 40
0
 40
0
 40
1
 40
1
 40
1
 40
1
 10
49.943941
 20
14.410268
 30
0.0
 10
49.985154
 20
14.499568
 30
0.0
 10
50.005761
 20
14.691911
 30
0.0
 10
50.005761
 20
14.987298
 30
0.0
  0
LWPOLYLINE
  5
20e
100
AcDbEntity
  8
Ebene_1
 62
7
100
AcDbPolyline
 90
2
 70
0
 10
49.397828
 20
18.140348
 30
0.0
 10
49.397828
 20
15.054268
 30
0.0
  0
LWPOLYLINE
  5
20f
100
AcDbEntity
  8
Ebene_1
 62
7
100
AcDbPolyline
 90
2
 70
0
 10
50.005761
 20
14.987298
 30
0.0
 10
50.005763
 20
18.140348
 30
0.0
  0
SPLINE
  5
210
100
AcDbEntity
  8
Ebene_1
 62
7
100
AcDbSpline
 70
8
 71
3
 72
8
 73
4
 74
0
 40
0
 40
0
 40
0
 40
0
 40
1
 40
1
 40
1
 40
1
 10
57.507144
 20
14.760608
 30
0.0
 10
57.507144
 20
14.049621
 30
0.0
 10
57.489971
 20
13.589371
 30
0.0
 10
57.455624
 20
13.379858
 30
0.0
  0
SPLINE
  5
211
100
AcDbEntity
  8
Ebene_1
 62
7
100
AcDbSpline
 70
8
 71
3
 72
8
 73
4
 74
0
 40
0
 40
0
 40
0
 40
0
 40
1
 40
1
 40
1
 40
1
 10
57.455624
 20
13.379858
 30
0.0
 10
57.424711
 20
13.173771
 30
0.0
 10
57.309648
 20
12.955668
 30
0.0
 10
57.110437
 20
12.725548
 30
0.0
  0
SPLINE
  5
212
100
AcDbEntity
  8
Ebene_1
 62
7
100
AcDbSpline
 70
8
 71
3
 72
8
 73
4
 74
0
 40
0
 40
0
 40
0
 40
0
 40
1
 40
1
 40
1
 40
1
 10
57.110437
 20
12.725548
 30
0.0
 10
56.911224
 20
12.491988
 30
0.0
 10
56.633014
 20
12.315101
 30
0.0
 10
56.275806
 20
12.194888
 30
0.0
  0
SPLINE
  5
213
100
AcDbEntity
  8
Ebene_1
 62
7
100
AcDbSpline
 70
8
 71
3
 72
8
 73
4
 74
0
 40
0
 40
0
 40
0
 40
0
 40
1
 40
1
 40
1
 40
1
 10
56.275806
 20
12.194888
 30
0.0
 10
55.922032
 20
12.071235
 30
0.0
 10
55.475521
 20
12.009408
 30
0.0
 10
54.936274
 20
12.009408
 30
0.0
  0
SPLINE
  5
214
100
AcDbEntity
  8
Ebene_1
 62
7
100
AcDbSpline
 70
8
 71
3
 72
8
 73
4
 74
0
 40
0
 40
0
 40
0
 40
0
 40
1
 40
1
 40
1
 40
1
 10
54.936274
 20
12.009408
 30
0.0
 10
54.273377
 20
12.009408
 30
0.0
 10
53.740999
 20
12.122755
 30
0.0
 10
53.339139
 20
12.349448
 30
0.0
  0
SPLINE
  5
215
100
AcDbEntity
  8
Ebene_1
 62
7
100
AcDbSpline
 70
8
 71
3
 72
8
 73
4
 74
0
 40
0
 40
0
 40
0
 40
0
 40
1
 40
1
 40
1
 40
1
 10
53.339139
 20
12.349448
 30
0.0
 10
52.937280
 20
12.572701
 30
0.0
 10
52.729481
 20
13.014058
 30
0.0
 10
52.715742
 20
13.673518
 30
0.0
  0
LWPOLYLINE
  5
216
100
AcDbEntity
  8
Ebene_1
 62
7
100
AcDbPolyline
 90
2
 70
0
 10
57.507144
 20
20.025998
 30
0.0
 10
57.507144
 20
14.760608
 30
0.0
  0
SPLINE
  5
217
100
AcDbEntity
  8
Ebene_1
 62
7
100
AcDbSpline
 70
8
 71
3
 72
8
 73
4
 74
0
 40
0
 40
0
 40
0
 40
0
 40
1
 40
1
 40
1
 40
1
 10
54.735344
 20
13.673518
 30
0.0
 10
54.735344
 20
13.371265
 30
0.0
 10
54.845254
 20
13.220138
 30
0.0
 10
55.065075
 20
13.220138
 30
0.0
  0
SPLINE
  5
218
100
AcDbEntity
  8
Ebene_1
 62
7
100
AcDbSpline
 70
8
 71
3
 72
8
 73
4
 74
0
 40
0
 40
0
 40
0
 40
0
 40
1
 40
1
 40
1
 40
1
 10
55.065075
 20
13.220138
 30
0.0
 10
55.223071
 20
13.220138
 30
0.0
 10
55.327829
 20
13.266508
 30
0.0
 10
55.379350
 20
13.359248
 30
0.0
  0
SPLINE
  5
219
100
AcDbEntity
  8
Ebene_1
 62
7
100
AcDbSpline
 70
8
 71
3
 72
8
 73
4
 74
0
 40
0
 40
0
 40
0
 40
0
 40
1
 40
1
 40
1
 40
1
 10
55.379350
 20
13.359248
 30
0.0
 10
55.430870
 20
13.451981
 30
0.0
 10
55.456630
 20
13.646041
 30
0.0
 10
55.456630
 20
13.941428
 30
0.0
  0
LWPOLYLINE
  5
21a
100
AcDbEntity
  8
Ebene_1
 62
7
100
AcDbPolyline
 90
2
 70
0
 10
52.715742
 20
13.673518
 30
0.0
 10
54.735344
 20
13.673518
 30
0.0
  0
SPLINE
  5
21b
100
AcDbEntity
  8
Ebene_1
 62
7
100
AcDbSpline
 70
8
 71
3
 72
8
 73
4
 74
0
 40
0
 40
0
 40
0
 40
0
 40
1
 40
1
 40
1
 40
1
 10
55.456630
 20
14.456628
 30
0.0
 10
55.278026
 20
14.295201
 30
0.0
 10
55.089118
 20
14.173271
 30
0.0
 10
54.889905
 20
14.090838
 30
0.0
  0
SPLINE
  5
21c
100
AcDbEntity
  8
Ebene_1
 62
7
100
AcDbSpline
 70
8
 71
3
 72
8
 73
4
 74
0
 40
0
 40
0
 40
0
 40
0
 40
1
 40
1
 40
1
 40
1
 10
54.889905
 20
14.090838
 30
0.0
 10
54.694128
 20
14.008405
 30
0.0
 10
54.488046
 20
13.967188
 30
0.0
 10
54.271660
 20
13.967188
 30
0.0
  0
SPLINE
  5
21d
100
AcDbEntity
  8
Ebene_1
 62
7
100
AcDbSpline
 70
8
 71
3
 72
8
 73
4
 74
0
 40
0
 40
0
 40
0
 40
0
 40
1
 40
1
 40
1
 40
1
 10
54.271660
 20
13.967188
 30
0.0
 10
53.897278
 20
13.967188
 30
0.0
 10
53.588155
 20
14.042751
 30
0.0
 10
53.344291
 20
14.193878
 30
0.0
  0
SPLINE
  5
21e
100
AcDbEntity
  8
Ebene_1
 62
7
100
AcDbSpline
 70
8
 71
3
 72
8
 73
4
 74
0
 40
0
 40
0
 40
0
 40
0
 40
1
 40
1
 40
1
 40
1
 10
53.344291
 20
14.193878
 30
0.0
 10
53.103862
 20
14.345005
 30
0.0
 10
52.938997
 20
14.542501
 30
0.0
 10
52.849695
 20
14.786368
 30
0.0
  0
SPLINE
  5
21f
100
AcDbEntity
  8
Ebene_1
 62
7
100
AcDbSpline
 70
8
 71
3
 72
8
 73
4
 74
0
 40
0
 40
0
 40
0
 40
0
 40
1
 40
1
 40
1
 40
1
 10
52.849695
 20
14.786368
 30
0.0
 10
52.760393
 20
15.033661
 30
0.0
 10
52.715742
 20
15.383998
 30
0.0
 10
52.715742
 20
15.837378
 30
0.0
  0
LWPOLYLINE
  5
220
100
AcDbEntity
  8
Ebene_1
 62
7
100
AcDbPolyline
 90
2
 70
0
 10
55.456630
 20
13.941428
 30
0.0
 10
55.456630
 20
14.456628
 30
0.0
  0
SPLINE
  5
221
100
AcDbEntity
  8
Ebene_1
 62
7
100
AcDbSpline
 70
8
 71
3
 72
8
 73
4
 74
0
 40
0
 40
0
 40
0
 40
0
 40
1
 40
1
 40
1
 40
1
 10
52.715742
 20
18.320668
 30
0.0
 10
52.715742
 20
18.969828
 30
0.0
 10
52.832522
 20
19.436948
 30
0.0
 10
53.066081
 20
19.722028
 30
0.0
  0
SPLINE
  5
222
100
AcDbEntity
  8
Ebene_1
 62
7
100
AcDbSpline
 70
8
 71
3
 72
8
 73
4
 74
0
 40
0
 40
0
 40
0
 40
0
 40
1
 40
1
 40
1
 40
1
 10
53.066081
 20
19.722028
 30
0.0
 10
53.299640
 20
20.007108
 30
0.0
 10
53.655131
 20
20.149648
 30
0.0
 10
54.132554
 20
20.149648
 30
0.0
  0
SPLINE
  5
223
100
AcDbEntity
  8
Ebene_1
 62
7
100
AcDbSpline
 70
8
 71
3
 72
8
 73
4
 74
0
 40
0
 40
0
 40
0
 40
0
 40
1
 40
1
 40
1
 40
1
 10
54.132554
 20
20.149648
 30
0.0
 10
54.393591
 20
20.149648
 30
0.0
 10
54.630586
 20
20.096408
 30
0.0
 10
54.843537
 20
19.989928
 30
0.0
  0
SPLINE
  5
224
100
AcDbEntity
  8
Ebene_1
 62
7
100
AcDbSpline
 70
8
 71
3
 72
8
 73
4
 74
0
 40
0
 40
0
 40
0
 40
0
 40
1
 40
1
 40
1
 40
1
 10
54.843537
 20
19.989928
 30
0.0
 10
55.059923
 20
19.883455
 30
0.0
 10
55.252266
 20
19.723741
 30
0.0
 10
55.420566
 20
19.510788
 30
0.0
  0
LWPOLYLINE
  5
225
100
AcDbEntity
  8
Ebene_1
 62
7
100
AcDbPolyline
 90
2
 70
0
 10
52.715742
 20
15.837378
 30
0.0
 10
52.715742
 20
18.320668
 30
0.0
  0
SPLINE
  5
226
100
AcDbEntity
  8
Ebene_1
 62
7
100
AcDbSpline
 70
8
 71
3
 72
8
 73
4
 74
0
 40
0
 40
0
 40
0
 40
0
 40
1
 40
1
 40
1
 40
1
 10
55.420565
 20
18.212478
 30
0.0
 10
55.420565
 20
18.525031
 30
0.0
 10
55.401675
 20
18.724241
 30
0.0
 10
55.363895
 20
18.810108
 30
0.0
  0
SPLINE
  5
227
100
AcDbEntity
  8
Ebene_1
 62
7
100
AcDbSpline
 70
8
 71
3
 72
8
 73
4
 74
0
 40
0
 40
0
 40
0
 40
0
 40
1
 40
1
 40
1
 40
1
 10
55.363895
 20
18.810108
 30
0.0
 10
55.329548
 20
18.895981
 30
0.0
 10
55.250550
 20
18.938918
 30
0.0
 10
55.126901
 20
18.938918
 30
0.0
  0
SPLINE
  5
228
100
AcDbEntity
  8
Ebene_1
 62
7
100
AcDbSpline
 70
8
 71
3
 72
8
 73
4
 74
0
 40
0
 40
0
 40
0
 40
0
 40
1
 40
1
 40
1
 40
1
 10
55.126901
 20
18.938918
 30
0.0
 10
55.006687
 20
18.938918
 30
0.0
 10
54.920820
 20
18.889115
 30
0.0
 10
54.869299
 20
18.789508
 30
0.0
  0
SPLINE
  5
229
100
AcDbEntity
  8
Ebene_1
 62
7
100
AcDbSpline
 70
8
 71
3
 72
8
 73
4
 74
0
 40
0
 40
0
 40
0
 40
0
 40
1
 40
1
 40
1
 40
1
 10
54.869299
 20
18.789508
 30
0.0
 10
54.821212
 20
18.693335
 30
0.0
 10
54.797169
 20
18.500991
 30
0.0
 10
54.797169
 20
18.212478
 30
0.0
  0
LWPOLYLINE
  5
22a
100
AcDbEntity
  8
Ebene_1
 62
7
100
AcDbPolyline
 90
3
 70
0
 10
55.420566
 20
19.510788
 30
0.0
 10
55.569975
 20
20.025998
 30
0.0
 10
57.507144
 20
20.025998
 30
0.0
  0
SPLINE
  5
22b
100
AcDbEntity
  8
Ebene_1
 62
7
100
AcDbSpline
 70
8
 71
3
 72
8
 73
4
 74
0
 40
0
 40
0
 40
0
 40
0
 40
1
 40
1
 40
1
 40
1
 10
54.797169
 20
15.914658
 30
0.0
 10
54.797169
 20
15.608971
 30
0.0
 10
54.816059
 20
15.409761
 30
0.0
 10
54.853839
 20
15.317028
 30
0.0
  0
SPLINE
  5
22c
100
AcDbEntity
  8
Ebene_1
 62
7
100
AcDbSpline
 70
8
 71
3
 72
8
 73
4
 74
0
 40
0
 40
0
 40
0
 40
0
 40
1
 40
1
 40
1
 40
1
 10
54.853839
 20
15.317028
 30
0.0
 10
54.891619
 20
15.227721
 30
0.0
 10
54.970617
 20
15.183068
 30
0.0
 10
55.090833
 20
15.183068
 30
0.0
  0
SPLINE
  5
22d
100
AcDbEntity
  8
Ebene_1
 62
7
100
AcDbSpline
 70
8
 71
3
 72
8
 73
4
 74
0
 40
0
 40
0
 40
0
 40
0
 40
1
 40
1
 40
1
 40
1
 10
55.090833
 20
15.183068
 30
0.0
 10
55.228221
 20
15.183068
 30
0.0
 10
55.317523
 20
15.238025
 30
0.0
 10
55.358739
 20
15.347938
 30
0.0
  0
SPLINE
  5
22e
100
AcDbEntity
  8
Ebene_1
 62
7
100
AcDbSpline
 70
8
 71
3
 72
8
 73
4
 74
0
 40
0
 40
0
 40
0
 40
0
 40
1
 40
1
 40
1
 40
1
 10
55.358739
 20
15.347938
 30
0.0
 10
55.399952
 20
15.457845
 30
0.0
 10
55.420559
 20
15.706861
 30
0.0
 10
55.420559
 20
16.094988
 30
0.0
  0
LWPOLYLINE
  5
22f
100
AcDbEntity
  8
Ebene_1
 62
7
100
AcDbPolyline
 90
2
 70
0
 10
54.797169
 20
18.212478
 30
0.0
 10
54.797169
 20
15.914658
 30
0.0
  0
LWPOLYLINE
  5
230
100
AcDbEntity
  8
Ebene_1
 62
7
100
AcDbPolyline
 90
2
 70
0
 10
55.420559
 20
16.094988
 30
0.0
 10
55.420565
 20
18.212478
 30
0.0
  0
LWPOLYLINE
  5
231
100
AcDbEntity
  8
Ebene_1
 62
7
100
AcDbPolyline
 90
4
 70
1
 10
60.402594
 20
21.530392
 30
0.0
 10
60.402594
 20
20.443308
 30
0.0
 10
58.259342
 20
20.443308
 30
0.0
 10
58.259342
 20
21.530392
 30
0.0
  0
LWPOLYLINE
  5
232
100
AcDbEntity
  8
Ebene_1
 62
7
100
AcDbPolyline
 90
4
 70
1
 10
60.402594
 20
20.025998
 30
0.0
 10
60.402594
 20
13.189228
 30
0.0
 10
58.259342
 20
13.189228
 30
0.0
 10
58.259342
 20
20.025998
 30
0.0
  0
SPLINE
  5
233
100
AcDbEntity
  8
Ebene_1
 62
7
100
AcDbSpline
 70
8
 71
3
 72
8
 73
4
 74
0
 40
0
 40
0
 40
0
 40
0
 40
1
 40
1
 40
1
 40
1
 10
63.225877
 20
19.397448
 30
0.0
 10
63.377004
 20
19.648181
 30
0.0
 10
63.560760
 20
19.835371
 30
0.0
 10
63.777147
 20
19.959018
 30
0.0
  0
SPLINE
  5
234
100
AcDbEntity
  8
Ebene_1
 62
7
100
AcDbSpline
 70
8
 71
3
 72
8
 73
4
 74
0
 40
0
 40
0
 40
0
 40
0
 40
1
 40
1
 40
1
 40
1
 10
63.777147
 20
19.959018
 30
0.0
 10
63.996967
 20
20.086105
 30
0.0
 10
64.249417
 20
20.149648
 30
0.0
 10
64.534497
 20
20.149648
 30
0.0
  0
SPLINE
  5
235
100
AcDbEntity
  8
Ebene_1
 62
7
100
AcDbSpline
 70
8
 71
3
 72
8
 73
4
 74
0
 40
0
 40
0
 40
0
 40
0
 40
1
 40
1
 40
1
 40
1
 10
64.534497
 20
20.149648
 30
0.0
 10
64.891704
 20
20.149648
 30
0.0
 10
65.183654
 20
20.065498
 30
0.0
 10
65.410347
 20
19.897198
 30
0.0
  0
SPLINE
  5
236
100
AcDbEntity
  8
Ebene_1
 62
7
100
AcDbSpline
 70
8
 71
3
 72
8
 73
4
 74
0
 40
0
 40
0
 40
0
 40
0
 40
1
 40
1
 40
1
 40
1
 10
65.410347
 20
19.897198
 30
0.0
 10
65.637034
 20
19.728898
 30
0.0
 10
65.783007
 20
19.515945
 30
0.0
 10
65.848267
 20
19.258338
 30
0.0
  0
SPLINE
  5
237
100
AcDbEntity
  8
Ebene_1
 62
7
100
AcDbSpline
 70
8
 71
3
 72
8
 73
4
 74
0
 40
0
 40
0
 40
0
 40
0
 40
1
 40
1
 40
1
 40
1
 10
65.848267
 20
19.258338
 30
0.0
 10
65.913534
 20
19.004171
 30
0.0
 10
65.946167
 20
18.578268
 30
0.0
 10
65.946167
 20
17.980628
 30
0.0
  0
LWPOLYLINE
  5
238
100
AcDbEntity
  8
Ebene_1
 62
7
100
AcDbPolyline
 90
2
 70
0
 10
63.261977
 20
20.025998
 30
0.0
 10
63.225877
 20
19.397448
 30
0.0
  0
SPLINE
  5
239
100
AcDbEntity
  8
Ebene_1
 62
7
100
AcDbSpline
 70
8
 71
3
 72
8
 73
4
 74
0
 40
0
 40
0
 40
0
 40
0
 40
1
 40
1
 40
1
 40
1
 10
63.864767
 20
17.923958
 30
0.0
 10
63.864767
 20
18.394511
 30
0.0
 10
63.849300
 20
18.681308
 30
0.0
 10
63.818367
 20
18.784348
 30
0.0
  0
SPLINE
  5
23a
100
AcDbEntity
  8
Ebene_1
 62
7
100
AcDbSpline
 70
8
 71
3
 72
8
 73
4
 74
0
 40
0
 40
0
 40
0
 40
0
 40
1
 40
1
 40
1
 40
1
 10
63.818367
 20
18.784348
 30
0.0
 10
63.787434
 20
18.887395
 30
0.0
 10
63.701567
 20
18.938918
 30
0.0
 10
63.560767
 20
18.938918
 30
0.0
  0
SPLINE
  5
23b
100
AcDbEntity
  8
Ebene_1
 62
7
100
AcDbSpline
 70
8
 71
3
 72
8
 73
4
 74
0
 40
0
 40
0
 40
0
 40
0
 40
1
 40
1
 40
1
 40
1
 10
63.560767
 20
18.938918
 30
0.0
 10
63.413074
 20
18.938918
 30
0.0
 10
63.320337
 20
18.878808
 30
0.0
 10
63.282557
 20
18.758588
 30
0.0
  0
SPLINE
  5
23c
100
AcDbEntity
  8
Ebene_1
 62
7
100
AcDbSpline
 70
8
 71
3
 72
8
 73
4
 74
0
 40
0
 40
0
 40
0
 40
0
 40
1
 40
1
 40
1
 40
1
 10
63.282557
 20
18.758588
 30
0.0
 10
63.244757
 20
18.641808
 30
0.0
 10
63.225857
 20
18.325818
 30
0.0
 10
63.225857
 20
17.810618
 30
0.0
  0
LWPOLYLINE
  5
23d
100
AcDbEntity
  8
Ebene_1
 62
7
100
AcDbPolyline
 90
4
 70
0
 10
65.946167
 20
17.980628
 30
0.0
 10
65.946167
 20
13.189228
 30
0.0
 10
63.864767
 20
13.189228
 30
0.0
 10
63.864767
 20
17.923958
 30
0.0
  0
LWPOLYLINE
  5
23e
100
AcDbEntity
  8
Ebene_1
 62
7
100
AcDbPolyline
 90
5
 70
0
 10
63.225857
 20
17.810618
 30
0.0
 10
63.225857
 20
13.189228
 30
0.0
 10
61.144427
 20
13.189228
 30
0.0
 10
61.144427
 20
20.025998
 30
0.0
 10
63.261977
 20
20.025998
 30
0.0
  0
ENDSEC
  0
SECTION
  2
OBJECTS
  0
DICTIONARY
  5
C
330
0
100
AcDbDictionary
  3
ACAD_GROUP
350
D
  3
ACAD_MLINESTYLE
350
17
  0
DICTIONARY
  5
D
330
C
100
AcDbDictionary
  0
DICTIONARY
  5
1A
330
C
100
AcDbDictionary
  0
DICTIONARY
  5
17
330
C
100
AcDbDictionary
  3
STANDARD
350
18
  0
DICTIONARY
  5
19
330
C
100
AcDbDictionary
  0
ENDSEC
  0
EOF
