<?xml version="1.0" encoding="UTF-8" standalone="no"?>
<!-- Created with Inkscape (http://www.inkscape.org/) -->

<svg
   xmlns:dc="http://purl.org/dc/elements/1.1/"
   xmlns:cc="http://creativecommons.org/ns#"
   xmlns:rdf="http://www.w3.org/1999/02/22-rdf-syntax-ns#"
   xmlns:svg="http://www.w3.org/2000/svg"
   xmlns="http://www.w3.org/2000/svg"
   xmlns:sodipodi="http://sodipodi.sourceforge.net/DTD/sodipodi-0.dtd"
   xmlns:inkscape="http://www.inkscape.org/namespaces/inkscape"
   width="87.664581mm"
   height="87.664581mm"
   viewBox="0 0 87.664581 87.664581"
   version="1.1"
   id="svg8"
   inkscape:version="0.92.3 (2405546, 2018-03-11)"
   sodipodi:docname="enclosure-label-v2.svg">
  <defs
     id="defs2" />
  <sodipodi:namedview
     id="base"
     pagecolor="#ffffff"
     bordercolor="#666666"
     borderopacity="1.0"
     inkscape:pageopacity="0.0"
     inkscape:pageshadow="2"
     inkscape:zoom="1.4"
     inkscape:cx="145.85783"
     inkscape:cy="135.08302"
     inkscape:document-units="mm"
     inkscape:current-layer="layer1"
     showgrid="false"
     fit-margin-top="0"
     fit-margin-left="0"
     fit-margin-right="0"
     fit-margin-bottom="0"
     inkscape:window-width="1858"
     inkscape:window-height="1057"
     inkscape:window-x="54"
     inkscape:window-y="-8"
     inkscape:window-maximized="1"
     showborder="false" />
  <metadata
     id="metadata5">
    <rdf:RDF>
      <cc:Work
         rdf:about="">
        <dc:format>image/svg+xml</dc:format>
        <dc:type
           rdf:resource="http://purl.org/dc/dcmitype/StillImage" />
        <dc:title></dc:title>
      </cc:Work>
    </rdf:RDF>
  </metadata>
  <g
     inkscape:label="Ebene 1"
     inkscape:groupmode="layer"
     id="layer1"
     transform="translate(-39.177233,-33.040327)"
     style="display:inline">
    <rect
       style="fill:none;fill-opacity:1;stroke:#000000;stroke-width:0.26378477;stroke-opacity:1"
       id="rect12"
       width="87.136215"
       height="87.136215"
       x="39.309128"
       y="33.436802"
       inkscape:export-filename="C:\Users\micha\OneDrive\Desktop\text4632.png"
       inkscape:export-xdpi="120.08"
       inkscape:export-ydpi="120.08" />
    <g
       id="g4579"
       transform="matrix(0.1655595,0,0,0.1655595,40.489286,28.147919)"
       inkscape:export-filename="C:\Users\micha\OneDrive\Desktop\text4632.png"
       inkscape:export-xdpi="120.08"
       inkscape:export-ydpi="120.08"
       style="fill:#000000">
      <g
         id="g4577"
         style="fill:#000000">
        <g
           id="g4559"
           style="fill:#000000">
          <path
             id="path4557"
             d="m 415.698,192.641 c -8.379,-21.068 -21.236,-40.268 -38.577,-57.6 L 413.43,98.677 c 26.971,26.989 45.555,57.456 55.745,91.404 6.226,20.683 9.349,42.655 9.367,65.919 v 0.06 c -0.008,34.011 -6.66,65.254 -19.957,93.729 -10.701,23.024 -25.735,44.24 -45.097,63.651 l -36.427,-36.422 c 13.297,-13.305 23.948,-27.696 31.945,-43.171 12.119,-23.434 18.17,-49.363 18.156,-77.788 V 256 c 0.028,-22.713 -3.79,-43.832 -11.464,-63.359 z"
             inkscape:connector-curvature="0"
             style="clip-rule:evenodd;fill:#000000;fill-rule:evenodd" />
        </g>
        <g
           id="g4563"
           style="fill:#000000">
          <path
             id="path4561"
             d="m 351.69,160.99 c 8.768,8.825 16.062,18.27 21.88,28.334 h 0.06 c 11.449,19.798 17.17,41.983 17.165,66.56 V 256 c -0.004,25.516 -6.152,48.478 -18.447,68.889 h -0.057 c -5.676,9.334 -12.638,18.139 -20.892,26.414 v -0.06 l -0.057,0.06 -36.427,-36.423 c 2.371,-2.448 4.562,-4.95 6.576,-7.505 v -0.06 C 333.319,292.643 339.254,275.536 339.298,256 v -0.116 c -0.019,-22.938 -8.124,-42.506 -24.323,-58.705 l 36.483,-36.538 c 0.083,0.111 0.16,0.227 0.232,0.349 z"
             inkscape:connector-curvature="0"
             style="clip-rule:evenodd;fill:#000000;fill-rule:evenodd" />
        </g>
        <g
           id="g4567"
           style="fill:#000000">
          <path
             id="path4565"
             d="m 225.829,225.571 c 8.342,-8.35 18.427,-12.519 30.259,-12.509 11.851,-0.01 21.956,4.159 30.316,12.509 l 0.059,0.059 c 8.313,8.348 12.463,18.433 12.451,30.254 V 256 c -0.016,11.798 -4.187,21.863 -12.51,30.197 -0.03,0.027 -0.048,0.068 -0.058,0.116 -8.364,8.272 -18.447,12.402 -30.259,12.394 -11.817,0.009 -21.884,-4.142 -30.201,-12.452 l -0.058,-0.058 c -8.311,-8.317 -12.481,-18.365 -12.511,-30.138 0,-0.06 0,-0.117 0,-0.176 -0.012,-11.787 4.121,-21.854 12.395,-30.196 0.035,-0.034 0.074,-0.072 0.117,-0.116 z"
             inkscape:connector-curvature="0"
             style="clip-rule:evenodd;fill:#000000;fill-rule:evenodd" />
        </g>
        <g
           id="g4571"
           style="fill:#000000">
          <path
             id="path4569"
             d="m 121.265,255.884 c -0.006,-1.646 0.014,-3.273 0.059,-4.887 1.113,-35.124 14.225,-65.242 39.335,-90.356 l 36.426,36.422 c -16.217,16.235 -24.306,35.842 -24.265,58.821 0,0.059 0,0.116 0,0.176 -0.015,2.561 0.083,5.084 0.291,7.563 v 0.057 c 1.61,19.688 9.602,36.736 23.974,51.143 0.035,0.037 0.073,0.075 0.117,0.116 l -36.485,36.423 -0.058,-0.059 c -26.237,-26.289 -39.368,-58.037 -39.394,-95.243 0,-0.06 0,-0.118 0,-0.176 z"
             inkscape:connector-curvature="0"
             style="clip-rule:evenodd;fill:#000000;fill-rule:evenodd" />
        </g>
        <g
           id="g4575"
           style="fill:#000000">
          <path
             id="path4573"
             d="M 35.437,225.28 C 41.558,176.84 62.623,134.619 98.629,98.618 l 36.425,36.423 c -29.26,29.239 -45.727,63.78 -49.402,103.621 -0.51,5.681 -0.763,11.479 -0.756,17.397 0.002,47.206 16.684,87.524 50.042,120.959 l 0.058,0.059 -36.426,36.421 -0.058,-0.058 C 55.153,369.981 33.487,317.52 33.515,256.059 c 0.006,-10.527 0.646,-20.788 1.922,-30.779 z"
             inkscape:connector-curvature="0"
             style="clip-rule:evenodd;fill:#000000;fill-rule:evenodd" />
        </g>
      </g>
    </g>
    <text
       xml:space="preserve"
       style="font-style:normal;font-variant:normal;font-weight:normal;font-stretch:normal;font-size:10.55139065px;line-height:1.25;font-family:Impact;-inkscape-font-specification:Impact;letter-spacing:0px;word-spacing:0px;fill:#000000;fill-opacity:1;stroke:none;stroke-width:0.26378477"
       x="55.476646"
       y="107.51568"
       id="text4713"><tspan
         sodipodi:role="line"
         id="tspan4711"
         x="55.476646"
         y="107.51568"
         style="letter-spacing:1.05833328px;stroke-width:0.26378477">RFID-Login</tspan></text>
  </g>
</svg>
